<svg width="21" height="21" viewBox="0 0 21 21" fill="none"
    xmlns="http://www.w3.org/2000/svg">
    <path d="M18.9037 0H1.71852C1.26274 0 0.825627 0.181058 0.503342 0.503342C0.181058 0.825627 0 1.26274 0 1.71852L0 18.9037C0 19.3595 0.181058 19.7966 0.503342 20.1189C0.825627 20.4412 1.26274 20.6222 1.71852 20.6222H11.1704V12.8889H8.59259V9.45185H11.1704V7.22895C11.1704 4.56524 12.7969 3.11481 15.1737 3.11481C16.3122 3.11481 17.29 3.19988 17.5753 3.23769V6.02169L15.9272 6.02255C14.6349 6.02255 14.3849 6.63692 14.3849 7.53742V9.45185H18.2L17.3407 12.8889H14.3849V20.6222H18.9037C19.3595 20.6222 19.7966 20.4412 20.1189 20.1189C20.4412 19.7966 20.6222 19.3595 20.6222 18.9037V1.71852C20.6222 1.26274 20.4412 0.825627 20.1189 0.503342C19.7966 0.181058 19.3595 0 18.9037 0V0Z" fill="#2d88ff"/>
</svg>
