<svg width="22" height="21" viewBox="0 0 22 21" fill="none" xmlns="http://www.w3.org/2000/svg">
<path d="M21.3778 2.68088C20.6044 3.09333 19.8311 3.40266 18.9719 3.50577C19.8311 2.8871 20.5185 1.85599 20.8622 0.721771C20.003 1.34044 19.1437 1.75288 18.1985 1.9591C17.4252 0.927993 16.3081 0.309326 15.1052 0.309326C12.7852 0.309326 10.8948 2.57777 10.8948 5.36177C10.8948 5.77421 10.8948 6.18666 10.9807 6.49599C7.37185 6.28977 4.27852 4.22755 2.2163 1.13421C1.78667 1.9591 1.61481 2.78399 1.61481 3.71199C1.61481 5.46488 2.38815 7.01155 3.50518 7.93955C2.81778 7.93955 2.13037 7.73333 1.61481 7.32088V7.42399C1.61481 9.89866 3.07555 11.9609 4.96592 12.3733C4.62222 12.4764 4.27852 12.5795 3.84889 12.5795C3.59111 12.5795 3.33333 12.5795 3.07555 12.4764C3.59111 14.5387 5.13778 15.9822 7.02815 15.9822C5.56741 17.3227 3.76296 18.1475 1.78667 18.1475C1.44296 18.1475 1.09926 18.1475 0.755554 18.0444C2.64592 19.488 4.88 20.3129 7.2 20.3129C15.0193 20.3129 19.2296 12.5795 19.2296 5.87733V5.25866C20.0889 4.53688 20.7763 3.60888 21.3778 2.68088Z" fill="#707070"/>
</svg>
