<svg width="39" height="34" viewBox="0 0 39 34" fill="none" xmlns="http://www.w3.org/2000/svg">
<path d="M14.8142 2.74342H23.2731V4.80096H26.0165V2.74342C26.0165 1.18884 24.8277 0 23.2731 0H14.8142C13.2596 0 12.0708 1.18884 12.0708 2.74342V4.80096H14.8142V2.74342Z" fill="black"/>
<path d="M23.6392 18.8379V19.6152C23.6392 20.3926 23.0447 20.9869 22.2675 20.9869H15.7747C14.9974 20.9869 14.4031 20.3925 14.4031 19.6152V18.8379H2.05762V30.5888C2.05762 32.1434 3.24646 33.3322 4.80104 33.3322H33.7898C35.3444 33.3322 36.5332 32.1434 36.5332 30.5888V18.8379H23.6392Z" fill="#E3E6E7"/>
<path d="M37.219 4.57227H26.0167H23.2733H14.8144H12.071H1.37167C0.594421 4.57227 0 5.16669 0 5.94393V17.9235C0 18.7009 0.594421 19.2952 1.37167 19.2952H2.05754H14.4029V15.7745C14.4029 14.9971 14.9973 14.4028 15.7746 14.4028H22.2673C23.0447 14.4028 23.639 14.9972 23.639 15.7745V19.2952H36.5331H37.219C37.9963 19.2952 38.5906 18.7008 38.5906 17.9235V5.94393C38.5907 5.16669 37.9963 4.57227 37.219 4.57227Z" fill="#979A9B"/>
<path d="M14.8602 21.9016H23.1819C23.9592 21.9016 24.5536 21.3072 24.5536 20.5299V19.2954V15.3175C24.5536 14.5401 23.9592 13.9458 23.1819 13.9458H14.8602C14.0829 13.9458 13.4885 14.5402 13.4885 15.3175V19.2954V20.5299C13.4884 21.3072 14.0829 21.9016 14.8602 21.9016Z" fill="#838687"/>
</svg>
