<svg width="21" height="21" viewBox="0 0 21 21" fill="none" xmlns="http://www.w3.org/2000/svg">
<path fill-rule="evenodd" clip-rule="evenodd" d="M5.68546 0.0169035C5.68546 0.0270455 5.61785 0.0338069 5.51643 0.0338069C5.41501 0.0338069 5.34739 0.0405683 5.34739 0.0507104C5.34739 0.0603623 5.29668 0.0676138 5.22907 0.0676138C5.16146 0.0676138 5.11075 0.0748654 5.11075 0.0845173C5.11075 0.0939156 5.06566 0.101421 5.00933 0.101421C4.95299 0.101421 4.90791 0.108926 4.90791 0.118324C4.90791 0.127621 4.88509 0.135228 4.85719 0.135228C4.8293 0.135228 4.80648 0.142834 4.80648 0.152131C4.80648 0.161428 4.77606 0.169035 4.73887 0.169035C4.70168 0.169035 4.67126 0.176641 4.67126 0.185938C4.67126 0.195235 4.63322 0.202842 4.58674 0.202842C4.54025 0.202842 4.50222 0.210448 4.50222 0.219745C4.50222 0.229042 4.4718 0.236648 4.43461 0.236648C4.39742 0.236648 4.36699 0.244255 4.36699 0.253552C4.36699 0.262849 4.35178 0.270455 4.33319 0.270455C4.31459 0.270455 4.29938 0.278062 4.29938 0.287359C4.29938 0.296656 4.27656 0.304262 4.24867 0.304262C4.22078 0.304262 4.19796 0.311869 4.19796 0.321166C4.19796 0.330463 4.18275 0.338069 4.16415 0.338069C4.14556 0.338069 4.13035 0.345676 4.13035 0.354973C4.13035 0.36427 4.10753 0.371876 4.07964 0.371876C4.05174 0.371876 4.02892 0.379483 4.02892 0.38878C4.02892 0.398077 4.00611 0.405683 3.97821 0.405683C3.95032 0.405683 3.9275 0.41329 3.9275 0.422587C3.9275 0.431883 3.90468 0.43949 3.87679 0.43949C3.8489 0.43949 3.82608 0.447097 3.82608 0.456393C3.82608 0.46569 3.81087 0.473297 3.79228 0.473297C3.77368 0.473297 3.75847 0.480903 3.75847 0.4902C3.75847 0.499497 3.74326 0.507104 3.72466 0.507104C3.70607 0.507104 3.69086 0.51471 3.69086 0.524007C3.69086 0.533304 3.67564 0.540911 3.65705 0.540911C3.63845 0.540911 3.62324 0.548517 3.62324 0.557814C3.62324 0.567111 3.60803 0.574718 3.58943 0.574718C3.57084 0.574718 3.55563 0.582324 3.55563 0.591621C3.55563 0.600918 3.54041 0.608525 3.52182 0.608525C3.50323 0.608525 3.48801 0.616131 3.48801 0.625428C3.48801 0.634725 3.4728 0.642332 3.45421 0.642332C3.43561 0.642332 3.4204 0.649938 3.4204 0.659235C3.4204 0.668532 3.40519 0.676138 3.38659 0.676138C3.368 0.676138 3.35279 0.683745 3.35279 0.693042C3.35279 0.702339 3.33925 0.709945 3.32272 0.709945C3.30617 0.709945 3.28167 0.725159 3.26827 0.743752C3.25486 0.762346 3.23037 0.777559 3.21382 0.777559C3.19729 0.777559 3.18375 0.785166 3.18375 0.794463C3.18375 0.80376 3.17021 0.811366 3.15368 0.811366C3.13713 0.811366 3.11264 0.826579 3.09923 0.845173C3.08583 0.863767 3.06134 0.87898 3.04479 0.87898C3.02826 0.87898 3.01472 0.886587 3.01472 0.895884C3.01472 0.90518 3.00118 0.912787 2.98465 0.912787C2.9681 0.912787 2.9436 0.928 2.9302 0.946594C2.9168 0.965188 2.89534 0.980401 2.88253 0.980401C2.86974 0.980401 2.83792 1.00322 2.81188 1.03111C2.78583 1.059 2.7554 1.08182 2.74426 1.08182C2.73312 1.08182 2.7027 1.10464 2.67665 1.13253C2.6506 1.16042 2.62017 1.18324 2.60903 1.18324C2.59789 1.18324 2.56747 1.20606 2.54142 1.23395C2.51537 1.26184 2.4854 1.28466 2.47482 1.28466C2.46426 1.28466 2.38773 1.35312 2.30477 1.43679C2.22181 1.52047 2.14585 1.58893 2.13594 1.58893C2.1125 1.58893 1.9667 1.73472 1.9667 1.75816C1.9667 1.76807 1.89824 1.84403 1.81457 1.92699C1.7309 2.00996 1.66244 2.08648 1.66244 2.09704C1.66244 2.10763 1.63962 2.13759 1.61173 2.16364C1.58384 2.18969 1.56102 2.22012 1.56102 2.23126C1.56102 2.2424 1.5382 2.27282 1.51031 2.29887C1.48242 2.32492 1.4596 2.35535 1.4596 2.36648C1.4596 2.37762 1.43678 2.40805 1.40889 2.4341C1.381 2.46015 1.35818 2.49196 1.35818 2.50475C1.35818 2.51757 1.34296 2.53902 1.32437 2.55242C1.30578 2.56583 1.29056 2.59032 1.29056 2.60687C1.29056 2.6234 1.28296 2.63694 1.27366 2.63694C1.26436 2.63694 1.25676 2.65048 1.25676 2.66701C1.25676 2.68356 1.24154 2.70805 1.22295 2.72146C1.20436 2.73486 1.18914 2.75935 1.18914 2.7759C1.18914 2.79243 1.18154 2.80597 1.17224 2.80597C1.16294 2.80597 1.15534 2.81951 1.15534 2.83605C1.15534 2.85259 1.14012 2.87709 1.12153 2.89049C1.10294 2.9039 1.08772 2.92839 1.08772 2.94494C1.08772 2.96147 1.08012 2.97501 1.07082 2.97501C1.06152 2.97501 1.05392 2.99022 1.05392 3.00882C1.05392 3.02741 1.04631 3.04262 1.03701 3.04262C1.02772 3.04262 1.02011 3.05784 1.02011 3.07643C1.02011 3.09502 1.0125 3.11024 1.00321 3.11024C0.993908 3.11024 0.986302 3.12545 0.986302 3.14404C0.986302 3.16264 0.978695 3.17785 0.969398 3.17785C0.960101 3.17785 0.952495 3.19306 0.952495 3.21166C0.952495 3.23025 0.944888 3.24546 0.935591 3.24546C0.926294 3.24546 0.918688 3.26068 0.918688 3.27927C0.918688 3.29787 0.911081 3.31308 0.901784 3.31308C0.892488 3.31308 0.884881 3.32829 0.884881 3.34689C0.884881 3.36548 0.877274 3.38069 0.867977 3.38069C0.858681 3.38069 0.851074 3.39591 0.851074 3.4145C0.851074 3.43309 0.843467 3.44831 0.834171 3.44831C0.824874 3.44831 0.817267 3.47113 0.817267 3.49902C0.817267 3.52691 0.809661 3.54973 0.800364 3.54973C0.791067 3.54973 0.78346 3.57255 0.78346 3.60044C0.78346 3.62833 0.775854 3.65115 0.766557 3.65115C0.75726 3.65115 0.749653 3.67397 0.749653 3.70186C0.749653 3.72975 0.742047 3.75257 0.73275 3.75257C0.723453 3.75257 0.715846 3.76778 0.715846 3.78638C0.715846 3.80497 0.70824 3.82018 0.698943 3.82018C0.689646 3.82018 0.682039 3.843 0.682039 3.87089C0.682039 3.89878 0.674433 3.9216 0.665136 3.9216C0.655839 3.9216 0.648232 3.93682 0.648232 3.95541C0.648232 3.974 0.640626 3.98922 0.631329 3.98922C0.622032 3.98922 0.614426 4.01964 0.614426 4.05683C0.614426 4.09402 0.606819 4.12444 0.597522 4.12444C0.588225 4.12444 0.580619 4.16248 0.580619 4.20896C0.580619 4.25545 0.573012 4.29348 0.563715 4.29348C0.554418 4.29348 0.546812 4.32391 0.546812 4.36109C0.546812 4.39828 0.539205 4.42871 0.529908 4.42871C0.520611 4.42871 0.513005 4.45153 0.513005 4.47942C0.513005 4.50731 0.505398 4.53013 0.496101 4.53013C0.486703 4.53013 0.479198 4.57521 0.479198 4.63155C0.479198 4.68789 0.471693 4.73297 0.462294 4.73297C0.452643 4.73297 0.445391 4.78368 0.445391 4.85129C0.445391 4.91891 0.438139 4.96962 0.428487 4.96962C0.418345 4.96962 0.411584 5.03723 0.411584 5.13865C0.411584 5.24007 0.404823 5.30769 0.394681 5.30769C0.383457 5.30769 0.377777 6.98676 0.377777 10.3111C0.377777 13.6355 0.383457 15.3145 0.394681 15.3145C0.404823 15.3145 0.411584 15.3822 0.411584 15.4836C0.411584 15.585 0.418345 15.6526 0.428487 15.6526C0.438139 15.6526 0.445391 15.7033 0.445391 15.7709C0.445391 15.8385 0.452643 15.8893 0.462294 15.8893C0.471693 15.8893 0.479198 15.9343 0.479198 15.9907C0.479198 16.047 0.486703 16.0921 0.496101 16.0921C0.505398 16.0921 0.513005 16.1149 0.513005 16.1428C0.513005 16.1707 0.520611 16.1935 0.529908 16.1935C0.539205 16.1935 0.546812 16.2239 0.546812 16.2611C0.546812 16.2983 0.554418 16.3287 0.563715 16.3287C0.573012 16.3287 0.580619 16.3668 0.580619 16.4133C0.580619 16.4597 0.588225 16.4978 0.597522 16.4978C0.606819 16.4978 0.614426 16.5282 0.614426 16.5654C0.614426 16.6026 0.622032 16.633 0.631329 16.633C0.640626 16.633 0.648232 16.6482 0.648232 16.6668C0.648232 16.6854 0.655839 16.7006 0.665136 16.7006C0.674433 16.7006 0.682039 16.7234 0.682039 16.7513C0.682039 16.7792 0.689646 16.802 0.698943 16.802C0.70824 16.802 0.715846 16.8173 0.715846 16.8358C0.715846 16.8544 0.723453 16.8697 0.73275 16.8697C0.742047 16.8697 0.749653 16.8925 0.749653 16.9204C0.749653 16.9483 0.75726 16.9711 0.766557 16.9711C0.775854 16.9711 0.78346 16.9939 0.78346 17.0218C0.78346 17.0497 0.791067 17.0725 0.800364 17.0725C0.809661 17.0725 0.817267 17.0953 0.817267 17.1232C0.817267 17.1511 0.824874 17.1739 0.834171 17.1739C0.843467 17.1739 0.851074 17.1891 0.851074 17.2077C0.851074 17.2263 0.858681 17.2415 0.867977 17.2415C0.877274 17.2415 0.884881 17.2567 0.884881 17.2753C0.884881 17.2939 0.892488 17.3091 0.901784 17.3091C0.911081 17.3091 0.918688 17.3244 0.918688 17.343C0.918688 17.3615 0.926294 17.3768 0.935591 17.3768C0.944888 17.3768 0.952495 17.392 0.952495 17.4106C0.952495 17.4292 0.960101 17.4444 0.969398 17.4444C0.978695 17.4444 0.986302 17.4596 0.986302 17.4782C0.986302 17.4968 0.993908 17.512 1.00321 17.512C1.0125 17.512 1.02011 17.5272 1.02011 17.5458C1.02011 17.5644 1.02772 17.5796 1.03701 17.5796C1.04631 17.5796 1.05392 17.5948 1.05392 17.6134C1.05392 17.632 1.06152 17.6472 1.07082 17.6472C1.08012 17.6472 1.08772 17.6608 1.08772 17.6773C1.08772 17.6938 1.10294 17.7183 1.12153 17.7317C1.14012 17.7451 1.15534 17.7696 1.15534 17.7862C1.15534 17.8027 1.16294 17.8162 1.17224 17.8162C1.18154 17.8162 1.18914 17.8298 1.18914 17.8463C1.18914 17.8629 1.20436 17.8874 1.22295 17.9008C1.24154 17.9142 1.25676 17.9387 1.25676 17.9552C1.25676 17.9717 1.26436 17.9853 1.27366 17.9853C1.28296 17.9853 1.29056 17.9988 1.29056 18.0154C1.29056 18.0319 1.30578 18.0564 1.32437 18.0698C1.34296 18.0832 1.35818 18.1047 1.35818 18.1175C1.35818 18.1303 1.381 18.1621 1.40889 18.1881C1.43678 18.2142 1.4596 18.2446 1.4596 18.2557C1.4596 18.2669 1.48242 18.2973 1.51031 18.3234C1.5382 18.3494 1.56102 18.3798 1.56102 18.391C1.56102 18.4021 1.58384 18.4325 1.61173 18.4586C1.63962 18.4846 1.66244 18.5146 1.66244 18.5252C1.66244 18.5357 1.7309 18.6123 1.81457 18.6952C1.89824 18.7782 1.9667 18.8542 1.9667 18.8641C1.9667 18.8875 2.1125 19.0333 2.13594 19.0333C2.14585 19.0333 2.22181 19.1018 2.30477 19.1854C2.38773 19.2691 2.46426 19.3376 2.47482 19.3376C2.4854 19.3376 2.51537 19.3604 2.54142 19.3883C2.56747 19.4162 2.59789 19.439 2.60903 19.439C2.62017 19.439 2.6506 19.4618 2.67665 19.4897C2.7027 19.5176 2.73312 19.5404 2.74426 19.5404C2.7554 19.5404 2.78583 19.5632 2.81188 19.5911C2.83792 19.619 2.86974 19.6418 2.88253 19.6418C2.89534 19.6418 2.9168 19.657 2.9302 19.6756C2.9436 19.6942 2.9681 19.7094 2.98465 19.7094C3.00118 19.7094 3.01472 19.717 3.01472 19.7263C3.01472 19.7356 3.02826 19.7432 3.04479 19.7432C3.06134 19.7432 3.08583 19.7585 3.09923 19.7771C3.11264 19.7956 3.13713 19.8109 3.15368 19.8109C3.17021 19.8109 3.18375 19.8185 3.18375 19.8278C3.18375 19.8371 3.19729 19.8447 3.21382 19.8447C3.23037 19.8447 3.25486 19.8599 3.26827 19.8785C3.28167 19.8971 3.30617 19.9123 3.32272 19.9123C3.33925 19.9123 3.35279 19.9199 3.35279 19.9292C3.35279 19.9385 3.368 19.9461 3.38659 19.9461C3.40519 19.9461 3.4204 19.9537 3.4204 19.963C3.4204 19.9723 3.43561 19.9799 3.45421 19.9799C3.4728 19.9799 3.48801 19.9875 3.48801 19.9968C3.48801 20.0061 3.50323 20.0137 3.52182 20.0137C3.54041 20.0137 3.55563 20.0213 3.55563 20.0306C3.55563 20.0399 3.57084 20.0475 3.58943 20.0475C3.60803 20.0475 3.62324 20.0551 3.62324 20.0644C3.62324 20.0737 3.63845 20.0813 3.65705 20.0813C3.67564 20.0813 3.69086 20.0889 3.69086 20.0982C3.69086 20.1075 3.70607 20.1151 3.72466 20.1151C3.74326 20.1151 3.75847 20.1227 3.75847 20.132C3.75847 20.1413 3.77368 20.1489 3.79228 20.1489C3.81087 20.1489 3.82608 20.1565 3.82608 20.1658C3.82608 20.1751 3.8489 20.1827 3.87679 20.1827C3.90468 20.1827 3.9275 20.1903 3.9275 20.1996C3.9275 20.2089 3.95032 20.2165 3.97821 20.2165C4.00611 20.2165 4.02892 20.2241 4.02892 20.2334C4.02892 20.2427 4.05174 20.2503 4.07964 20.2503C4.10753 20.2503 4.13035 20.258 4.13035 20.2673C4.13035 20.2765 4.14556 20.2842 4.16415 20.2842C4.18275 20.2842 4.19796 20.2918 4.19796 20.3011C4.19796 20.3104 4.22078 20.318 4.24867 20.318C4.27656 20.318 4.29938 20.3256 4.29938 20.3349C4.29938 20.3442 4.31459 20.3518 4.33319 20.3518C4.35178 20.3518 4.36699 20.3594 4.36699 20.3687C4.36699 20.378 4.39742 20.3856 4.43461 20.3856C4.4718 20.3856 4.50222 20.3932 4.50222 20.4025C4.50222 20.4118 4.54025 20.4194 4.58674 20.4194C4.63322 20.4194 4.67126 20.427 4.67126 20.4363C4.67126 20.4456 4.70168 20.4532 4.73887 20.4532C4.77606 20.4532 4.80648 20.4608 4.80648 20.4701C4.80648 20.4794 4.8293 20.487 4.85719 20.487C4.88509 20.487 4.90791 20.4946 4.90791 20.5039C4.90791 20.5133 4.95299 20.5208 5.00933 20.5208C5.06566 20.5208 5.11075 20.5283 5.11075 20.5377C5.11075 20.5474 5.16146 20.5546 5.22907 20.5546C5.29668 20.5546 5.34739 20.5619 5.34739 20.5715C5.34739 20.5817 5.41501 20.5884 5.51643 20.5884C5.61785 20.5884 5.68546 20.5952 5.68546 20.6053C5.68546 20.6165 7.36454 20.6222 10.6889 20.6222C14.0132 20.6222 15.6923 20.6165 15.6923 20.6053C15.6923 20.5952 15.7599 20.5884 15.8613 20.5884C15.9628 20.5884 16.0304 20.5817 16.0304 20.5715C16.0304 20.5619 16.0811 20.5546 16.1487 20.5546C16.2163 20.5546 16.267 20.5474 16.267 20.5377C16.267 20.5283 16.3121 20.5208 16.3685 20.5208C16.4248 20.5208 16.4699 20.5133 16.4699 20.5039C16.4699 20.4946 16.4927 20.487 16.5206 20.487C16.5485 20.487 16.5713 20.4794 16.5713 20.4701C16.5713 20.4608 16.6017 20.4532 16.6389 20.4532C16.6761 20.4532 16.7065 20.4456 16.7065 20.4363C16.7065 20.427 16.7446 20.4194 16.791 20.4194C16.8375 20.4194 16.8756 20.4118 16.8756 20.4025C16.8756 20.3932 16.906 20.3856 16.9432 20.3856C16.9804 20.3856 17.0108 20.378 17.0108 20.3687C17.0108 20.3594 17.026 20.3518 17.0446 20.3518C17.0632 20.3518 17.0784 20.3442 17.0784 20.3349C17.0784 20.3256 17.1012 20.318 17.1291 20.318C17.157 20.318 17.1798 20.3104 17.1798 20.3011C17.1798 20.2918 17.195 20.2842 17.2136 20.2842C17.2322 20.2842 17.2474 20.2765 17.2474 20.2673C17.2474 20.258 17.2703 20.2503 17.2981 20.2503C17.326 20.2503 17.3489 20.2427 17.3489 20.2334C17.3489 20.2241 17.3717 20.2165 17.3996 20.2165C17.4275 20.2165 17.4503 20.2089 17.4503 20.1996C17.4503 20.1903 17.4731 20.1827 17.501 20.1827C17.5289 20.1827 17.5517 20.1751 17.5517 20.1658C17.5517 20.1565 17.5669 20.1489 17.5855 20.1489C17.6041 20.1489 17.6193 20.1413 17.6193 20.132C17.6193 20.1227 17.6345 20.1151 17.6531 20.1151C17.6717 20.1151 17.6869 20.1075 17.6869 20.0982C17.6869 20.0889 17.7021 20.0813 17.7207 20.0813C17.7393 20.0813 17.7545 20.0737 17.7545 20.0644C17.7545 20.0551 17.7697 20.0475 17.7883 20.0475C17.8069 20.0475 17.8221 20.0399 17.8221 20.0306C17.8221 20.0213 17.8374 20.0137 17.856 20.0137C17.8745 20.0137 17.8898 20.0061 17.8898 19.9968C17.8898 19.9875 17.905 19.9799 17.9236 19.9799C17.9422 19.9799 17.9574 19.9723 17.9574 19.963C17.9574 19.9537 17.9726 19.9461 17.9912 19.9461C18.0098 19.9461 18.025 19.9385 18.025 19.9292C18.025 19.9199 18.0385 19.9123 18.0551 19.9123C18.0716 19.9123 18.0961 19.8971 18.1095 19.8785C18.1229 19.8599 18.1474 19.8447 18.164 19.8447C18.1805 19.8447 18.194 19.8371 18.194 19.8278C18.194 19.8185 18.2076 19.8109 18.2241 19.8109C18.2406 19.8109 18.2651 19.7956 18.2785 19.7771C18.2919 19.7585 18.3164 19.7432 18.333 19.7432C18.3495 19.7432 18.3631 19.7356 18.3631 19.7263C18.3631 19.717 18.3766 19.7094 18.3931 19.7094C18.4097 19.7094 18.4342 19.6942 18.4476 19.6756C18.461 19.657 18.4824 19.6418 18.4952 19.6418C18.508 19.6418 18.5399 19.619 18.5659 19.5911C18.5919 19.5632 18.6224 19.5404 18.6335 19.5404C18.6447 19.5404 18.6751 19.5176 18.7011 19.4897C18.7272 19.4618 18.7576 19.439 18.7687 19.439C18.7799 19.439 18.8103 19.4162 18.8364 19.3883C18.8624 19.3604 18.8924 19.3376 18.903 19.3376C18.9135 19.3376 18.99 19.2691 19.073 19.1854C19.156 19.1018 19.2319 19.0333 19.2418 19.0333C19.2653 19.0333 19.4111 18.8875 19.4111 18.8641C19.4111 18.8542 19.4795 18.7782 19.5632 18.6952C19.6469 18.6123 19.7153 18.5357 19.7153 18.5252C19.7153 18.5146 19.7382 18.4846 19.766 18.4586C19.7939 18.4325 19.8168 18.4021 19.8168 18.391C19.8168 18.3798 19.8396 18.3494 19.8675 18.3234C19.8954 18.2973 19.9182 18.2669 19.9182 18.2557C19.9182 18.2446 19.941 18.2142 19.9689 18.1881C19.9968 18.1621 20.0196 18.1303 20.0196 18.1175C20.0196 18.1047 20.0348 18.0832 20.0534 18.0698C20.072 18.0564 20.0872 18.0319 20.0872 18.0154C20.0872 17.9988 20.0948 17.9853 20.1041 17.9853C20.1134 17.9853 20.121 17.9717 20.121 17.9552C20.121 17.9387 20.1362 17.9142 20.1548 17.9008C20.1734 17.8874 20.1886 17.8629 20.1886 17.8463C20.1886 17.8298 20.1962 17.8162 20.2055 17.8162C20.2148 17.8162 20.2224 17.8027 20.2224 17.7862C20.2224 17.7696 20.2377 17.7451 20.2562 17.7317C20.2748 17.7183 20.2901 17.6938 20.2901 17.6773C20.2901 17.6608 20.2977 17.6472 20.307 17.6472C20.3163 17.6472 20.3239 17.632 20.3239 17.6134C20.3239 17.5948 20.3315 17.5796 20.3408 17.5796C20.3501 17.5796 20.3577 17.5644 20.3577 17.5458C20.3577 17.5272 20.3653 17.512 20.3746 17.512C20.3839 17.512 20.3915 17.4968 20.3915 17.4782C20.3915 17.4596 20.3991 17.4444 20.4084 17.4444C20.4177 17.4444 20.4253 17.4292 20.4253 17.4106C20.4253 17.392 20.4329 17.3768 20.4422 17.3768C20.4515 17.3768 20.4591 17.3615 20.4591 17.343C20.4591 17.3244 20.4667 17.3091 20.476 17.3091C20.4853 17.3091 20.4929 17.2939 20.4929 17.2753C20.4929 17.2567 20.5005 17.2415 20.5098 17.2415C20.5191 17.2415 20.5267 17.2263 20.5267 17.2077C20.5267 17.1891 20.5343 17.1739 20.5436 17.1739C20.5529 17.1739 20.5605 17.1511 20.5605 17.1232C20.5605 17.0953 20.5681 17.0725 20.5774 17.0725C20.5867 17.0725 20.5943 17.0497 20.5943 17.0218C20.5943 16.9939 20.6019 16.9711 20.6112 16.9711C20.6205 16.9711 20.6281 16.9483 20.6281 16.9204C20.6281 16.8925 20.6357 16.8697 20.645 16.8697C20.6543 16.8697 20.6619 16.8544 20.6619 16.8358C20.6619 16.8173 20.6695 16.802 20.6788 16.802C20.6881 16.802 20.6957 16.7792 20.6957 16.7513C20.6957 16.7234 20.7033 16.7006 20.7126 16.7006C20.7219 16.7006 20.7295 16.6854 20.7295 16.6668C20.7295 16.6482 20.7372 16.633 20.7464 16.633C20.7557 16.633 20.7634 16.6026 20.7634 16.5654C20.7634 16.5282 20.771 16.4978 20.7803 16.4978C20.7896 16.4978 20.7972 16.4597 20.7972 16.4133C20.7972 16.3668 20.8048 16.3287 20.8141 16.3287C20.8234 16.3287 20.831 16.2983 20.831 16.2611C20.831 16.2239 20.8386 16.1935 20.8479 16.1935C20.8572 16.1935 20.8648 16.1707 20.8648 16.1428C20.8648 16.1149 20.8724 16.0921 20.8817 16.0921C20.8911 16.0921 20.8986 16.047 20.8986 15.9907C20.8986 15.9343 20.9061 15.8893 20.9155 15.8893C20.9251 15.8893 20.9324 15.8385 20.9324 15.7709C20.9324 15.7033 20.9396 15.6526 20.9493 15.6526C20.9594 15.6526 20.9662 15.585 20.9662 15.4836C20.9662 15.3822 20.973 15.3145 20.9831 15.3145C20.9943 15.3145 21 13.6355 21 10.3111C21 6.98676 20.9943 5.30769 20.9831 5.30769C20.973 5.30769 20.9662 5.24007 20.9662 5.13865C20.9662 5.03723 20.9594 4.96962 20.9493 4.96962C20.9396 4.96962 20.9324 4.91891 20.9324 4.85129C20.9324 4.78368 20.9251 4.73297 20.9155 4.73297C20.9061 4.73297 20.8986 4.68789 20.8986 4.63155C20.8986 4.57521 20.8911 4.53013 20.8817 4.53013C20.8724 4.53013 20.8648 4.50731 20.8648 4.47942C20.8648 4.45153 20.8572 4.42871 20.8479 4.42871C20.8386 4.42871 20.831 4.39828 20.831 4.36109C20.831 4.32391 20.8234 4.29348 20.8141 4.29348C20.8048 4.29348 20.7972 4.25545 20.7972 4.20896C20.7972 4.16248 20.7896 4.12444 20.7803 4.12444C20.771 4.12444 20.7634 4.09402 20.7634 4.05683C20.7634 4.01964 20.7557 3.98922 20.7464 3.98922C20.7372 3.98922 20.7295 3.974 20.7295 3.95541C20.7295 3.93682 20.7219 3.9216 20.7126 3.9216C20.7033 3.9216 20.6957 3.89878 20.6957 3.87089C20.6957 3.843 20.6881 3.82018 20.6788 3.82018C20.6695 3.82018 20.6619 3.80497 20.6619 3.78638C20.6619 3.76778 20.6543 3.75257 20.645 3.75257C20.6357 3.75257 20.6281 3.72975 20.6281 3.70186C20.6281 3.67397 20.6205 3.65115 20.6112 3.65115C20.6019 3.65115 20.5943 3.62833 20.5943 3.60044C20.5943 3.57255 20.5867 3.54973 20.5774 3.54973C20.5681 3.54973 20.5605 3.52691 20.5605 3.49902C20.5605 3.47113 20.5529 3.44831 20.5436 3.44831C20.5343 3.44831 20.5267 3.43309 20.5267 3.4145C20.5267 3.39591 20.5191 3.38069 20.5098 3.38069C20.5005 3.38069 20.4929 3.36548 20.4929 3.34689C20.4929 3.32829 20.4853 3.31308 20.476 3.31308C20.4667 3.31308 20.4591 3.29787 20.4591 3.27927C20.4591 3.26068 20.4515 3.24546 20.4422 3.24546C20.4329 3.24546 20.4253 3.23025 20.4253 3.21166C20.4253 3.19306 20.4177 3.17785 20.4084 3.17785C20.3991 3.17785 20.3915 3.16264 20.3915 3.14404C20.3915 3.12545 20.3839 3.11024 20.3746 3.11024C20.3653 3.11024 20.3577 3.09502 20.3577 3.07643C20.3577 3.05784 20.3501 3.04262 20.3408 3.04262C20.3315 3.04262 20.3239 3.02741 20.3239 3.00882C20.3239 2.99022 20.3163 2.97501 20.307 2.97501C20.2977 2.97501 20.2901 2.96147 20.2901 2.94494C20.2901 2.92839 20.2748 2.9039 20.2562 2.89049C20.2377 2.87709 20.2224 2.85259 20.2224 2.83605C20.2224 2.81951 20.2148 2.80597 20.2055 2.80597C20.1962 2.80597 20.1886 2.79243 20.1886 2.7759C20.1886 2.75935 20.1734 2.73486 20.1548 2.72146C20.1362 2.70805 20.121 2.68356 20.121 2.66701C20.121 2.65048 20.1134 2.63694 20.1041 2.63694C20.0948 2.63694 20.0872 2.6234 20.0872 2.60687C20.0872 2.59032 20.072 2.56583 20.0534 2.55242C20.0348 2.53902 20.0196 2.51757 20.0196 2.50475C20.0196 2.49196 19.9968 2.46015 19.9689 2.4341C19.941 2.40805 19.9182 2.37762 19.9182 2.36648C19.9182 2.35535 19.8954 2.32492 19.8675 2.29887C19.8396 2.27282 19.8168 2.2424 19.8168 2.23126C19.8168 2.22012 19.7939 2.18969 19.766 2.16364C19.7382 2.13759 19.7153 2.10763 19.7153 2.09704C19.7153 2.08648 19.6469 2.00996 19.5632 1.92699C19.4795 1.84403 19.4111 1.76807 19.4111 1.75816C19.4111 1.73472 19.2653 1.58893 19.2418 1.58893C19.2319 1.58893 19.156 1.52047 19.073 1.43679C18.99 1.35312 18.9135 1.28466 18.903 1.28466C18.8924 1.28466 18.8624 1.26184 18.8364 1.23395C18.8103 1.20606 18.7799 1.18324 18.7687 1.18324C18.7576 1.18324 18.7272 1.16042 18.7011 1.13253C18.6751 1.10464 18.6447 1.08182 18.6335 1.08182C18.6224 1.08182 18.5919 1.059 18.5659 1.03111C18.5399 1.00322 18.508 0.980401 18.4952 0.980401C18.4824 0.980401 18.461 0.965188 18.4476 0.946594C18.4342 0.928 18.4097 0.912787 18.3931 0.912787C18.3766 0.912787 18.3631 0.90518 18.3631 0.895884C18.3631 0.886587 18.3495 0.87898 18.333 0.87898C18.3164 0.87898 18.2919 0.863767 18.2785 0.845173C18.2651 0.826579 18.2406 0.811366 18.2241 0.811366C18.2076 0.811366 18.194 0.80376 18.194 0.794463C18.194 0.785166 18.1805 0.777559 18.164 0.777559C18.1474 0.777559 18.1229 0.762346 18.1095 0.743752C18.0961 0.725159 18.0716 0.709945 18.0551 0.709945C18.0385 0.709945 18.025 0.702339 18.025 0.693042C18.025 0.683745 18.0098 0.676138 17.9912 0.676138C17.9726 0.676138 17.9574 0.668532 17.9574 0.659235C17.9574 0.649938 17.9422 0.642332 17.9236 0.642332C17.905 0.642332 17.8898 0.634725 17.8898 0.625428C17.8898 0.616131 17.8745 0.608525 17.856 0.608525C17.8374 0.608525 17.8221 0.600918 17.8221 0.591621C17.8221 0.582324 17.8069 0.574718 17.7883 0.574718C17.7697 0.574718 17.7545 0.567111 17.7545 0.557814C17.7545 0.548517 17.7393 0.540911 17.7207 0.540911C17.7021 0.540911 17.6869 0.533304 17.6869 0.524007C17.6869 0.51471 17.6717 0.507104 17.6531 0.507104C17.6345 0.507104 17.6193 0.499497 17.6193 0.4902C17.6193 0.480903 17.6041 0.473297 17.5855 0.473297C17.5669 0.473297 17.5517 0.46569 17.5517 0.456393C17.5517 0.447097 17.5289 0.43949 17.501 0.43949C17.4731 0.43949 17.4503 0.431883 17.4503 0.422587C17.4503 0.41329 17.4275 0.405683 17.3996 0.405683C17.3717 0.405683 17.3489 0.398077 17.3489 0.38878C17.3489 0.379483 17.326 0.371876 17.2981 0.371876C17.2703 0.371876 17.2474 0.36427 17.2474 0.354973C17.2474 0.345676 17.2322 0.338069 17.2136 0.338069C17.195 0.338069 17.1798 0.330463 17.1798 0.321166C17.1798 0.311869 17.157 0.304262 17.1291 0.304262C17.1012 0.304262 17.0784 0.296656 17.0784 0.287359C17.0784 0.278062 17.0632 0.270455 17.0446 0.270455C17.026 0.270455 17.0108 0.262849 17.0108 0.253552C17.0108 0.244255 16.9804 0.236648 16.9432 0.236648C16.906 0.236648 16.8756 0.229042 16.8756 0.219745C16.8756 0.210448 16.8375 0.202842 16.791 0.202842C16.7446 0.202842 16.7065 0.195235 16.7065 0.185938C16.7065 0.176641 16.6761 0.169035 16.6389 0.169035C16.6017 0.169035 16.5713 0.161428 16.5713 0.152131C16.5713 0.142834 16.5485 0.135228 16.5206 0.135228C16.4927 0.135228 16.4699 0.127621 16.4699 0.118324C16.4699 0.108926 16.4248 0.101421 16.3685 0.101421C16.3121 0.101421 16.267 0.0939156 16.267 0.0845173C16.267 0.0748654 16.2163 0.0676138 16.1487 0.0676138C16.0811 0.0676138 16.0304 0.0603623 16.0304 0.0507104C16.0304 0.0405683 15.9628 0.0338069 15.8613 0.0338069C15.7599 0.0338069 15.6923 0.0270455 15.6923 0.0169035C15.6923 0.00567956 14.0132 0 10.6889 0C7.36454 0 5.68546 0.00567956 5.68546 0.0169035ZM15.4895 1.84248C15.4895 1.85272 15.5627 1.85938 15.6754 1.85938C15.7881 1.85938 15.8613 1.86604 15.8613 1.87628C15.8613 1.88594 15.9121 1.89319 15.9797 1.89319C16.0473 1.89319 16.098 1.90044 16.098 1.91009C16.098 1.91939 16.1284 1.92699 16.1656 1.92699C16.2028 1.92699 16.2332 1.9346 16.2332 1.9439C16.2332 1.95319 16.2637 1.9608 16.3008 1.9608C16.338 1.9608 16.3685 1.96841 16.3685 1.97771C16.3685 1.987 16.3913 1.99461 16.4192 1.99461C16.4471 1.99461 16.4699 2.00222 16.4699 2.01151C16.4699 2.02081 16.4927 2.02842 16.5206 2.02842C16.5485 2.02842 16.5713 2.03602 16.5713 2.04532C16.5713 2.05462 16.5941 2.06222 16.622 2.06222C16.6499 2.06222 16.6727 2.06983 16.6727 2.07913C16.6727 2.08842 16.6879 2.09603 16.7065 2.09603C16.7251 2.09603 16.7403 2.10364 16.7403 2.11293C16.7403 2.12223 16.7631 2.12984 16.791 2.12984C16.8189 2.12984 16.8417 2.13744 16.8417 2.14674C16.8417 2.15604 16.857 2.16364 16.8756 2.16364C16.8941 2.16364 16.9094 2.17125 16.9094 2.18055C16.9094 2.18984 16.9246 2.19745 16.9432 2.19745C16.9618 2.19745 16.977 2.20506 16.977 2.21435C16.977 2.22365 16.9922 2.23126 17.0108 2.23126C17.0294 2.23126 17.0446 2.23886 17.0446 2.24816C17.0446 2.25746 17.0598 2.26506 17.0784 2.26506C17.097 2.26506 17.1122 2.27267 17.1122 2.28197C17.1122 2.29126 17.1274 2.29887 17.146 2.29887C17.1646 2.29887 17.1798 2.30648 17.1798 2.31577C17.1798 2.32507 17.1934 2.33268 17.2099 2.33268C17.2264 2.33268 17.2509 2.34789 17.2643 2.36648C17.2777 2.38508 17.3006 2.40029 17.315 2.40029C17.3295 2.40029 17.3524 2.4155 17.3658 2.4341C17.3792 2.45269 17.4037 2.46791 17.4202 2.46791C17.4367 2.46791 17.4503 2.47551 17.4503 2.48481C17.4503 2.49411 17.4624 2.50171 17.4773 2.50171C17.4922 2.50171 17.5256 2.52453 17.5517 2.55242C17.5777 2.58031 17.6082 2.60313 17.6193 2.60313C17.6304 2.60313 17.6609 2.62595 17.6869 2.65384C17.713 2.68173 17.7427 2.70455 17.753 2.70455C17.7774 2.70455 18.2954 3.22256 18.2954 3.247C18.2954 3.2573 18.3183 3.28703 18.3462 3.31308C18.374 3.33913 18.3969 3.36955 18.3969 3.38069C18.3969 3.39183 18.4197 3.42226 18.4476 3.44831C18.4755 3.47435 18.4983 3.50784 18.4983 3.5227C18.4983 3.53757 18.5059 3.54973 18.5152 3.54973C18.5245 3.54973 18.5321 3.56327 18.5321 3.5798C18.5321 3.59635 18.5473 3.62084 18.5659 3.63424C18.5845 3.64765 18.5997 3.67047 18.5997 3.68495C18.5997 3.69944 18.6149 3.72226 18.6335 3.73567C18.6521 3.74907 18.6673 3.77356 18.6673 3.79011C18.6673 3.80664 18.6749 3.82018 18.6842 3.82018C18.6935 3.82018 18.7011 3.8354 18.7011 3.85399C18.7011 3.87258 18.7087 3.8878 18.718 3.8878C18.7273 3.8878 18.7349 3.90301 18.7349 3.9216C18.7349 3.9402 18.7425 3.95541 18.7518 3.95541C18.7611 3.95541 18.7687 3.97062 18.7687 3.98922C18.7687 4.00781 18.7764 4.02302 18.7856 4.02302C18.7949 4.02302 18.8026 4.03824 18.8026 4.05683C18.8026 4.07542 18.8102 4.09064 18.8195 4.09064C18.8288 4.09064 18.8364 4.10585 18.8364 4.12444C18.8364 4.14304 18.844 4.15825 18.8533 4.15825C18.8626 4.15825 18.8702 4.18107 18.8702 4.20896C18.8702 4.23685 18.8778 4.25967 18.8871 4.25967C18.8964 4.25967 18.904 4.27489 18.904 4.29348C18.904 4.31207 18.9116 4.32729 18.9209 4.32729C18.9302 4.32729 18.9378 4.35011 18.9378 4.378C18.9378 4.40589 18.9454 4.42871 18.9547 4.42871C18.964 4.42871 18.9716 4.45153 18.9716 4.47942C18.9716 4.50731 18.9792 4.53013 18.9885 4.53013C18.9978 4.53013 19.0054 4.55295 19.0054 4.58084C19.0054 4.60873 19.013 4.63155 19.0223 4.63155C19.0316 4.63155 19.0392 4.66197 19.0392 4.69916C19.0392 4.73635 19.0468 4.76678 19.0561 4.76678C19.0654 4.76678 19.073 4.7972 19.073 4.83439C19.073 4.87158 19.0806 4.902 19.0899 4.902C19.0996 4.902 19.1068 4.95271 19.1068 5.02033C19.1068 5.08794 19.1141 5.13865 19.1237 5.13865C19.134 5.13865 19.1406 5.21189 19.1406 5.32459C19.1406 5.43729 19.1473 5.51053 19.1575 5.51053C19.1687 5.51053 19.1744 7.12199 19.1744 10.3111C19.1744 13.5002 19.1687 15.1117 19.1575 15.1117C19.1473 15.1117 19.1406 15.1849 19.1406 15.2976C19.1406 15.4103 19.134 15.4836 19.1237 15.4836C19.1141 15.4836 19.1068 15.5343 19.1068 15.6019C19.1068 15.6695 19.0996 15.7202 19.0899 15.7202C19.0806 15.7202 19.073 15.7506 19.073 15.7878C19.073 15.825 19.0654 15.8554 19.0561 15.8554C19.0468 15.8554 19.0392 15.8859 19.0392 15.9231C19.0392 15.9602 19.0316 15.9907 19.0223 15.9907C19.013 15.9907 19.0054 16.0135 19.0054 16.0414C19.0054 16.0693 18.9978 16.0921 18.9885 16.0921C18.9792 16.0921 18.9716 16.1149 18.9716 16.1428C18.9716 16.1707 18.964 16.1935 18.9547 16.1935C18.9454 16.1935 18.9378 16.2163 18.9378 16.2442C18.9378 16.2721 18.9302 16.2949 18.9209 16.2949C18.9116 16.2949 18.904 16.3102 18.904 16.3287C18.904 16.3473 18.8964 16.3626 18.8871 16.3626C18.8778 16.3626 18.8702 16.3854 18.8702 16.4133C18.8702 16.4412 18.8626 16.464 18.8533 16.464C18.844 16.464 18.8364 16.4792 18.8364 16.4978C18.8364 16.5164 18.8288 16.5316 18.8195 16.5316C18.8102 16.5316 18.8026 16.5468 18.8026 16.5654C18.8026 16.584 18.7949 16.5992 18.7856 16.5992C18.7764 16.5992 18.7687 16.6144 18.7687 16.633C18.7687 16.6516 18.7611 16.6668 18.7518 16.6668C18.7425 16.6668 18.7349 16.682 18.7349 16.7006C18.7349 16.7192 18.7273 16.7344 18.718 16.7344C18.7087 16.7344 18.7011 16.7496 18.7011 16.7682C18.7011 16.7868 18.6935 16.802 18.6842 16.802C18.6749 16.802 18.6673 16.8156 18.6673 16.8321C18.6673 16.8487 18.6521 16.8732 18.6335 16.8866C18.6149 16.9 18.5997 16.9228 18.5997 16.9373C18.5997 16.9518 18.5845 16.9746 18.5659 16.988C18.5473 17.0014 18.5321 17.0259 18.5321 17.0424C18.5321 17.059 18.5245 17.0725 18.5152 17.0725C18.5059 17.0725 18.4983 17.0847 18.4983 17.0995C18.4983 17.1144 18.4755 17.1479 18.4476 17.1739C18.4197 17.2 18.3969 17.2304 18.3969 17.2415C18.3969 17.2527 18.374 17.2831 18.3462 17.3091C18.3183 17.3352 18.2954 17.3649 18.2954 17.3752C18.2954 17.3855 18.1776 17.5118 18.0336 17.6558C17.8895 17.7998 17.7633 17.9177 17.753 17.9177C17.7427 17.9177 17.713 17.9405 17.6869 17.9684C17.6609 17.9963 17.6304 18.0191 17.6193 18.0191C17.6082 18.0191 17.5777 18.0419 17.5517 18.0698C17.5256 18.0977 17.4922 18.1205 17.4773 18.1205C17.4624 18.1205 17.4503 18.1281 17.4503 18.1374C17.4503 18.1467 17.4367 18.1543 17.4202 18.1543C17.4037 18.1543 17.3792 18.1695 17.3658 18.1881C17.3524 18.2067 17.3295 18.2219 17.315 18.2219C17.3006 18.2219 17.2777 18.2371 17.2643 18.2557C17.2509 18.2743 17.2264 18.2895 17.2099 18.2895C17.1934 18.2895 17.1798 18.2972 17.1798 18.3064C17.1798 18.3157 17.1646 18.3234 17.146 18.3234C17.1274 18.3234 17.1122 18.331 17.1122 18.3403C17.1122 18.3496 17.097 18.3572 17.0784 18.3572C17.0598 18.3572 17.0446 18.3648 17.0446 18.3741C17.0446 18.3834 17.0294 18.391 17.0108 18.391C16.9922 18.391 16.977 18.3986 16.977 18.4079C16.977 18.4172 16.9618 18.4248 16.9432 18.4248C16.9246 18.4248 16.9094 18.4324 16.9094 18.4417C16.9094 18.451 16.8941 18.4586 16.8756 18.4586C16.857 18.4586 16.8417 18.4662 16.8417 18.4755C16.8417 18.4848 16.8189 18.4924 16.791 18.4924C16.7631 18.4924 16.7403 18.5 16.7403 18.5093C16.7403 18.5186 16.7251 18.5262 16.7065 18.5262C16.6879 18.5262 16.6727 18.5338 16.6727 18.5431C16.6727 18.5524 16.6499 18.56 16.622 18.56C16.5941 18.56 16.5713 18.5676 16.5713 18.5769C16.5713 18.5862 16.5485 18.5938 16.5206 18.5938C16.4927 18.5938 16.4699 18.6014 16.4699 18.6107C16.4699 18.62 16.4471 18.6276 16.4192 18.6276C16.3913 18.6276 16.3685 18.6352 16.3685 18.6445C16.3685 18.6538 16.338 18.6614 16.3008 18.6614C16.2637 18.6614 16.2332 18.669 16.2332 18.6783C16.2332 18.6876 16.2028 18.6952 16.1656 18.6952C16.1284 18.6952 16.098 18.7028 16.098 18.7121C16.098 18.7218 16.0473 18.729 15.9797 18.729C15.9121 18.729 15.8613 18.7363 15.8613 18.7459C15.8613 18.7562 15.7881 18.7628 15.6754 18.7628C15.5627 18.7628 15.4895 18.7695 15.4895 18.7797C15.4895 18.791 13.878 18.7966 10.6889 18.7966C7.49976 18.7966 5.88831 18.791 5.88831 18.7797C5.88831 18.7695 5.81506 18.7628 5.70237 18.7628C5.58967 18.7628 5.51643 18.7562 5.51643 18.7459C5.51643 18.7363 5.46572 18.729 5.39811 18.729C5.33049 18.729 5.27978 18.7218 5.27978 18.7121C5.27978 18.7028 5.24935 18.6952 5.21217 18.6952C5.17498 18.6952 5.14455 18.6876 5.14455 18.6783C5.14455 18.669 5.11413 18.6614 5.07694 18.6614C5.03975 18.6614 5.00933 18.6538 5.00933 18.6445C5.00933 18.6352 4.98651 18.6276 4.95862 18.6276C4.93072 18.6276 4.90791 18.62 4.90791 18.6107C4.90791 18.6014 4.88509 18.5938 4.85719 18.5938C4.8293 18.5938 4.80648 18.5862 4.80648 18.5769C4.80648 18.5676 4.78366 18.56 4.75577 18.56C4.72788 18.56 4.70506 18.5524 4.70506 18.5431C4.70506 18.5338 4.68985 18.5262 4.67126 18.5262C4.65266 18.5262 4.63745 18.5186 4.63745 18.5093C4.63745 18.5 4.61463 18.4924 4.58674 18.4924C4.55885 18.4924 4.53603 18.4848 4.53603 18.4755C4.53603 18.4662 4.52082 18.4586 4.50222 18.4586C4.48363 18.4586 4.46841 18.451 4.46841 18.4417C4.46841 18.4324 4.4532 18.4248 4.43461 18.4248C4.41601 18.4248 4.4008 18.4172 4.4008 18.4079C4.4008 18.3986 4.38559 18.391 4.36699 18.391C4.3484 18.391 4.33319 18.3834 4.33319 18.3741C4.33319 18.3648 4.31797 18.3572 4.29938 18.3572C4.28079 18.3572 4.26557 18.3496 4.26557 18.3403C4.26557 18.331 4.25036 18.3234 4.23177 18.3234C4.21317 18.3234 4.19796 18.3157 4.19796 18.3064C4.19796 18.2972 4.18442 18.2895 4.16789 18.2895C4.15134 18.2895 4.12685 18.2743 4.11344 18.2557C4.10004 18.2371 4.07722 18.2219 4.06273 18.2219C4.04825 18.2219 4.02543 18.2067 4.01202 18.1881C3.99862 18.1695 3.97412 18.1543 3.95758 18.1543C3.94104 18.1543 3.9275 18.1467 3.9275 18.1374C3.9275 18.1281 3.91535 18.1205 3.90048 18.1205C3.88562 18.1205 3.85213 18.0977 3.82608 18.0698C3.80003 18.0419 3.76961 18.0191 3.75847 18.0191C3.74733 18.0191 3.7169 17.9963 3.69086 17.9684C3.66481 17.9405 3.63507 17.9177 3.62478 17.9177C3.60034 17.9177 3.08233 17.3997 3.08233 17.3752C3.08233 17.3649 3.05951 17.3352 3.03162 17.3091C3.00373 17.2831 2.98091 17.2527 2.98091 17.2415C2.98091 17.2304 2.95809 17.2 2.9302 17.1739C2.90231 17.1479 2.87949 17.1144 2.87949 17.0995C2.87949 17.0847 2.87188 17.0725 2.86259 17.0725C2.85329 17.0725 2.84568 17.059 2.84568 17.0424C2.84568 17.0259 2.83047 17.0014 2.81188 16.988C2.79328 16.9746 2.77807 16.9518 2.77807 16.9373C2.77807 16.9228 2.76286 16.9 2.74426 16.8866C2.72567 16.8732 2.71045 16.8487 2.71045 16.8321C2.71045 16.8156 2.70285 16.802 2.69355 16.802C2.68425 16.802 2.67665 16.7868 2.67665 16.7682C2.67665 16.7496 2.66904 16.7344 2.65974 16.7344C2.65045 16.7344 2.64284 16.7192 2.64284 16.7006C2.64284 16.682 2.63523 16.6668 2.62594 16.6668C2.61664 16.6668 2.60903 16.6516 2.60903 16.633C2.60903 16.6144 2.60143 16.5992 2.59213 16.5992C2.58283 16.5992 2.57523 16.584 2.57523 16.5654C2.57523 16.5468 2.56762 16.5316 2.55832 16.5316C2.54903 16.5316 2.54142 16.5164 2.54142 16.4978C2.54142 16.4792 2.53381 16.464 2.52452 16.464C2.51522 16.464 2.50761 16.4412 2.50761 16.4133C2.50761 16.3854 2.50001 16.3626 2.49071 16.3626C2.48141 16.3626 2.47381 16.3473 2.47381 16.3287C2.47381 16.3102 2.4662 16.2949 2.4569 16.2949C2.44761 16.2949 2.44 16.2721 2.44 16.2442C2.44 16.2163 2.43239 16.1935 2.4231 16.1935C2.4138 16.1935 2.40619 16.1707 2.40619 16.1428C2.40619 16.1149 2.39859 16.0921 2.38929 16.0921C2.37999 16.0921 2.37239 16.0693 2.37239 16.0414C2.37239 16.0135 2.36478 15.9907 2.35548 15.9907C2.34619 15.9907 2.33858 15.9602 2.33858 15.9231C2.33858 15.8859 2.33097 15.8554 2.32168 15.8554C2.31238 15.8554 2.30477 15.825 2.30477 15.7878C2.30477 15.7506 2.29717 15.7202 2.28787 15.7202C2.27822 15.7202 2.27096 15.6695 2.27096 15.6019C2.27096 15.5343 2.26371 15.4836 2.25406 15.4836C2.24382 15.4836 2.23716 15.4103 2.23716 15.2976C2.23716 15.1849 2.2305 15.1117 2.22025 15.1117C2.20903 15.1117 2.20335 13.5002 2.20335 10.3111C2.20335 7.12199 2.20903 5.51053 2.22025 5.51053C2.2305 5.51053 2.23716 5.43729 2.23716 5.32459C2.23716 5.21189 2.24382 5.13865 2.25406 5.13865C2.26371 5.13865 2.27096 5.08794 2.27096 5.02033C2.27096 4.95271 2.27822 4.902 2.28787 4.902C2.29717 4.902 2.30477 4.87158 2.30477 4.83439C2.30477 4.7972 2.31238 4.76678 2.32168 4.76678C2.33097 4.76678 2.33858 4.73635 2.33858 4.69916C2.33858 4.66197 2.34619 4.63155 2.35548 4.63155C2.36478 4.63155 2.37239 4.60873 2.37239 4.58084C2.37239 4.55295 2.37999 4.53013 2.38929 4.53013C2.39859 4.53013 2.40619 4.50731 2.40619 4.47942C2.40619 4.45153 2.4138 4.42871 2.4231 4.42871C2.43239 4.42871 2.44 4.40589 2.44 4.378C2.44 4.35011 2.44761 4.32729 2.4569 4.32729C2.4662 4.32729 2.47381 4.31207 2.47381 4.29348C2.47381 4.27489 2.48141 4.25967 2.49071 4.25967C2.50001 4.25967 2.50761 4.23685 2.50761 4.20896C2.50761 4.18107 2.51522 4.15825 2.52452 4.15825C2.53381 4.15825 2.54142 4.14304 2.54142 4.12444C2.54142 4.10585 2.54903 4.09064 2.55832 4.09064C2.56762 4.09064 2.57523 4.07542 2.57523 4.05683C2.57523 4.03824 2.58283 4.02302 2.59213 4.02302C2.60143 4.02302 2.60903 4.00781 2.60903 3.98922C2.60903 3.97062 2.61664 3.95541 2.62594 3.95541C2.63523 3.95541 2.64284 3.9402 2.64284 3.9216C2.64284 3.90301 2.65045 3.8878 2.65974 3.8878C2.66904 3.8878 2.67665 3.87258 2.67665 3.85399C2.67665 3.8354 2.68425 3.82018 2.69355 3.82018C2.70285 3.82018 2.71045 3.80664 2.71045 3.79011C2.71045 3.77356 2.72567 3.74907 2.74426 3.73567C2.76286 3.72226 2.77807 3.69944 2.77807 3.68495C2.77807 3.67047 2.79328 3.64765 2.81188 3.63424C2.83047 3.62084 2.84568 3.59635 2.84568 3.5798C2.84568 3.56327 2.85329 3.54973 2.86259 3.54973C2.87188 3.54973 2.87949 3.53757 2.87949 3.5227C2.87949 3.50784 2.90231 3.47435 2.9302 3.44831C2.95809 3.42226 2.98091 3.39183 2.98091 3.38069C2.98091 3.36955 3.00373 3.33913 3.03162 3.31308C3.05951 3.28703 3.08233 3.2573 3.08233 3.247C3.08233 3.22256 3.60034 2.70455 3.62478 2.70455C3.63507 2.70455 3.66481 2.68173 3.69086 2.65384C3.7169 2.62595 3.74733 2.60313 3.75847 2.60313C3.76961 2.60313 3.80003 2.58031 3.82608 2.55242C3.85213 2.52453 3.88562 2.50171 3.90048 2.50171C3.91535 2.50171 3.9275 2.49411 3.9275 2.48481C3.9275 2.47551 3.94104 2.46791 3.95758 2.46791C3.97412 2.46791 3.99862 2.45269 4.01202 2.4341C4.02543 2.4155 4.04825 2.40029 4.06273 2.40029C4.07722 2.40029 4.10004 2.38508 4.11344 2.36648C4.12685 2.34789 4.15134 2.33268 4.16789 2.33268C4.18442 2.33268 4.19796 2.32507 4.19796 2.31577C4.19796 2.30648 4.21317 2.29887 4.23177 2.29887C4.25036 2.29887 4.26557 2.29126 4.26557 2.28197C4.26557 2.27267 4.28079 2.26506 4.29938 2.26506C4.31797 2.26506 4.33319 2.25746 4.33319 2.24816C4.33319 2.23886 4.3484 2.23126 4.36699 2.23126C4.38559 2.23126 4.4008 2.22365 4.4008 2.21435C4.4008 2.20506 4.41601 2.19745 4.43461 2.19745C4.4532 2.19745 4.46841 2.18984 4.46841 2.18055C4.46841 2.17125 4.48363 2.16364 4.50222 2.16364C4.52082 2.16364 4.53603 2.15604 4.53603 2.14674C4.53603 2.13744 4.55885 2.12984 4.58674 2.12984C4.61463 2.12984 4.63745 2.12223 4.63745 2.11293C4.63745 2.10364 4.65266 2.09603 4.67126 2.09603C4.68985 2.09603 4.70506 2.08842 4.70506 2.07913C4.70506 2.06983 4.72788 2.06222 4.75577 2.06222C4.78366 2.06222 4.80648 2.05462 4.80648 2.04532C4.80648 2.03602 4.8293 2.02842 4.85719 2.02842C4.88509 2.02842 4.90791 2.02081 4.90791 2.01151C4.90791 2.00222 4.93072 1.99461 4.95862 1.99461C4.98651 1.99461 5.00933 1.987 5.00933 1.97771C5.00933 1.96841 5.03975 1.9608 5.07694 1.9608C5.11413 1.9608 5.14455 1.95319 5.14455 1.9439C5.14455 1.9346 5.17498 1.92699 5.21217 1.92699C5.24935 1.92699 5.27978 1.91939 5.27978 1.91009C5.27978 1.90044 5.33049 1.89319 5.39811 1.89319C5.46572 1.89319 5.51643 1.88594 5.51643 1.87628C5.51643 1.86604 5.58967 1.85938 5.70237 1.85938C5.81506 1.85938 5.88831 1.85272 5.88831 1.84248C5.88831 1.83125 7.49976 1.82557 10.6889 1.82557C13.878 1.82557 15.4895 1.83125 15.4895 1.84248ZM16.0304 3.46521C16.0304 3.47451 16 3.48211 15.9628 3.48211C15.9256 3.48211 15.8952 3.48972 15.8952 3.49902C15.8952 3.50831 15.8647 3.51592 15.8275 3.51592C15.7904 3.51592 15.7599 3.52353 15.7599 3.53282C15.7599 3.54212 15.7447 3.54973 15.7261 3.54973C15.7075 3.54973 15.6923 3.55733 15.6923 3.56663C15.6923 3.57593 15.6771 3.58353 15.6585 3.58353C15.6399 3.58353 15.6247 3.59114 15.6247 3.60044C15.6247 3.60973 15.6095 3.61734 15.5909 3.61734C15.5723 3.61734 15.5571 3.62495 15.5571 3.63424C15.5571 3.64354 15.5435 3.65115 15.527 3.65115C15.5105 3.65115 15.486 3.66636 15.4726 3.68495C15.4592 3.70355 15.4384 3.71876 15.4263 3.71876C15.3978 3.71876 15.1514 3.96511 15.1514 3.99366C15.1514 4.00571 15.1362 4.02652 15.1176 4.03993C15.099 4.05333 15.0838 4.07783 15.0838 4.09437C15.0838 4.11091 15.0762 4.12444 15.0669 4.12444C15.0576 4.12444 15.05 4.13966 15.05 4.15825C15.05 4.17685 15.0424 4.19206 15.0331 4.19206C15.0238 4.19206 15.0162 4.20727 15.0162 4.22587C15.0162 4.24446 15.0086 4.25967 14.9993 4.25967C14.99 4.25967 14.9824 4.27489 14.9824 4.29348C14.9824 4.31207 14.9748 4.32729 14.9655 4.32729C14.9562 4.32729 14.9486 4.35771 14.9486 4.3949C14.9486 4.43209 14.941 4.46251 14.9317 4.46251C14.9224 4.46251 14.9148 4.50055 14.9148 4.54703C14.9148 4.59352 14.9071 4.63155 14.8979 4.63155C14.8878 4.63155 14.8809 4.69353 14.8809 4.78368C14.8809 4.87383 14.8878 4.93581 14.8979 4.93581C14.9072 4.93581 14.9148 4.98089 14.9148 5.03723C14.9148 5.09357 14.9223 5.13865 14.9317 5.13865C14.941 5.13865 14.9486 5.16147 14.9486 5.18936C14.9486 5.21725 14.9562 5.24007 14.9655 5.24007C14.9748 5.24007 14.9824 5.26122 14.9824 5.28705C14.9824 5.31463 14.9963 5.34408 15.0162 5.3584C15.0348 5.3718 15.05 5.3963 15.05 5.41284C15.05 5.42938 15.0576 5.44291 15.0669 5.44291C15.0762 5.44291 15.0838 5.45813 15.0838 5.47672C15.0838 5.49532 15.0914 5.51053 15.1007 5.51053C15.11 5.51053 15.1176 5.52204 15.1176 5.5361C15.1176 5.56945 15.4305 5.8824 15.4639 5.8824C15.478 5.8824 15.4895 5.89001 15.4895 5.89931C15.4895 5.90861 15.503 5.91621 15.5195 5.91621C15.5361 5.91621 15.5606 5.93142 15.574 5.95002C15.5874 5.96861 15.6119 5.98383 15.6284 5.98383C15.645 5.98383 15.6585 5.99143 15.6585 6.00073C15.6585 6.01003 15.6737 6.01763 15.6923 6.01763C15.7109 6.01763 15.7261 6.02524 15.7261 6.03454C15.7261 6.04383 15.7489 6.05144 15.7768 6.05144C15.8047 6.05144 15.8275 6.05905 15.8275 6.06834C15.8275 6.07764 15.858 6.08525 15.8952 6.08525C15.9323 6.08525 15.9628 6.09285 15.9628 6.10215C15.9628 6.11271 16.0642 6.11905 16.2332 6.11905C16.4023 6.11905 16.5037 6.11271 16.5037 6.10215C16.5037 6.09285 16.5265 6.08525 16.5544 6.08525C16.5823 6.08525 16.6051 6.07764 16.6051 6.06834C16.6051 6.05905 16.6339 6.05144 16.669 6.05144C16.7135 6.05144 16.7403 6.04118 16.7572 6.01763C16.7706 5.99904 16.7951 5.98383 16.8117 5.98383C16.8282 5.98383 16.8417 5.97622 16.8417 5.96692C16.8417 5.95762 16.857 5.95002 16.8756 5.95002C16.8941 5.95002 16.9094 5.94241 16.9094 5.93312C16.9094 5.92382 16.9215 5.91621 16.9364 5.91621C16.9513 5.91621 16.9847 5.89339 17.0108 5.8655C17.0368 5.83761 17.0667 5.81479 17.0772 5.81479C17.1019 5.81479 17.2474 5.66929 17.2474 5.64454C17.2474 5.63408 17.2703 5.60419 17.2981 5.57814C17.326 5.55209 17.3489 5.51861 17.3489 5.50375C17.3489 5.48888 17.3565 5.47672 17.3658 5.47672C17.3751 5.47672 17.3827 5.46151 17.3827 5.44291C17.3827 5.42432 17.3903 5.40911 17.3996 5.40911C17.4089 5.40911 17.4165 5.39389 17.4165 5.3753C17.4165 5.35671 17.4241 5.34149 17.4334 5.34149C17.4427 5.34149 17.4503 5.32628 17.4503 5.30769C17.4503 5.28909 17.4579 5.27388 17.4672 5.27388C17.4765 5.27388 17.4841 5.25106 17.4841 5.22317C17.4841 5.19528 17.4917 5.17246 17.501 5.17246C17.5103 5.17246 17.5179 5.14964 17.5179 5.12175C17.5179 5.09386 17.5255 5.07104 17.5348 5.07104C17.5446 5.07104 17.5517 5.01516 17.5517 4.93721C17.5517 4.8467 17.5585 4.80021 17.5728 4.79353C17.5897 4.78566 17.5897 4.7817 17.5728 4.77382C17.5585 4.76715 17.5517 4.72066 17.5517 4.63015C17.5517 4.5522 17.5446 4.49632 17.5348 4.49632C17.5255 4.49632 17.5179 4.4735 17.5179 4.44561C17.5179 4.41772 17.5103 4.3949 17.501 4.3949C17.4917 4.3949 17.4841 4.37208 17.4841 4.34419C17.4841 4.3163 17.4765 4.29348 17.4672 4.29348C17.4579 4.29348 17.4503 4.27827 17.4503 4.25967C17.4503 4.24108 17.4427 4.22587 17.4334 4.22587C17.4241 4.22587 17.4165 4.21065 17.4165 4.19206C17.4165 4.17346 17.4089 4.15825 17.3996 4.15825C17.3903 4.15825 17.3827 4.14304 17.3827 4.12444C17.3827 4.10585 17.3751 4.09064 17.3658 4.09064C17.3565 4.09064 17.3489 4.07864 17.3489 4.06396C17.3489 4.04927 17.3184 4.00805 17.2812 3.97231C17.2441 3.93658 17.2136 3.8988 17.2136 3.88835C17.2136 3.86369 17.1363 3.78638 17.1116 3.78638C17.1012 3.78638 17.0634 3.75595 17.0277 3.71876C16.992 3.68157 16.9507 3.65115 16.936 3.65115C16.9214 3.65115 16.9094 3.64354 16.9094 3.63424C16.9094 3.62495 16.8941 3.61734 16.8756 3.61734C16.857 3.61734 16.8417 3.60973 16.8417 3.60044C16.8417 3.59114 16.8265 3.58353 16.8079 3.58353C16.7893 3.58353 16.7741 3.57593 16.7741 3.56663C16.7741 3.55733 16.7513 3.54973 16.7234 3.54973C16.6955 3.54973 16.6727 3.54212 16.6727 3.53282C16.6727 3.52353 16.6499 3.51592 16.622 3.51592C16.5941 3.51592 16.5713 3.50831 16.5713 3.49902C16.5713 3.48972 16.5409 3.48211 16.5037 3.48211C16.4665 3.48211 16.4361 3.47451 16.4361 3.46521C16.4361 3.45488 16.3572 3.44831 16.2332 3.44831C16.1093 3.44831 16.0304 3.45488 16.0304 3.46521ZM10.2832 5.02033C10.2832 5.03047 10.2156 5.03723 10.1142 5.03723C10.0128 5.03723 9.94514 5.04399 9.94514 5.05414C9.94514 5.06379 9.89443 5.07104 9.82681 5.07104C9.7592 5.07104 9.70849 5.07829 9.70849 5.08794C9.70849 5.09724 9.67045 5.10485 9.62397 5.10485C9.57749 5.10485 9.53945 5.11245 9.53945 5.12175C9.53945 5.13105 9.51663 5.13865 9.48874 5.13865C9.46085 5.13865 9.43803 5.14626 9.43803 5.15556C9.43803 5.16485 9.40761 5.17246 9.37042 5.17246C9.33323 5.17246 9.3028 5.18007 9.3028 5.18936C9.3028 5.19866 9.27238 5.20627 9.23519 5.20627C9.198 5.20627 9.16758 5.21387 9.16758 5.22317C9.16758 5.23247 9.14476 5.24007 9.11687 5.24007C9.08898 5.24007 9.06616 5.24768 9.06616 5.25698C9.06616 5.26627 9.04334 5.27388 9.01545 5.27388C8.98756 5.27388 8.96474 5.28149 8.96474 5.29078C8.96474 5.30008 8.94192 5.30769 8.91403 5.30769C8.88614 5.30769 8.86331 5.31529 8.86331 5.32459C8.86331 5.33389 8.8405 5.34149 8.8126 5.34149C8.78471 5.34149 8.76189 5.3491 8.76189 5.3584C8.76189 5.36769 8.74668 5.3753 8.72809 5.3753C8.70949 5.3753 8.69428 5.38291 8.69428 5.3922C8.69428 5.4015 8.67146 5.40911 8.64357 5.40911C8.61568 5.40911 8.59286 5.41671 8.59286 5.42601C8.59286 5.43531 8.57765 5.44291 8.55905 5.44291C8.54046 5.44291 8.52525 5.45052 8.52525 5.45982C8.52525 5.46912 8.51003 5.47672 8.49144 5.47672C8.47285 5.47672 8.45763 5.48433 8.45763 5.49363C8.45763 5.50292 8.44242 5.51053 8.42383 5.51053C8.40523 5.51053 8.39002 5.51814 8.39002 5.52743C8.39002 5.53673 8.3748 5.54434 8.35621 5.54434C8.33762 5.54434 8.3224 5.55194 8.3224 5.56124C8.3224 5.57054 8.30719 5.57814 8.2886 5.57814C8.27 5.57814 8.25479 5.58575 8.25479 5.59505C8.25479 5.60434 8.23958 5.61195 8.22098 5.61195C8.20239 5.61195 8.18718 5.61956 8.18718 5.62885C8.18718 5.63815 8.17196 5.64576 8.15337 5.64576C8.13478 5.64576 8.11956 5.65336 8.11956 5.66266C8.11956 5.67196 8.10602 5.67956 8.08949 5.67956C8.07294 5.67956 8.04845 5.69478 8.03505 5.71337C8.02164 5.73196 7.99715 5.74718 7.9806 5.74718C7.96407 5.74718 7.95053 5.75478 7.95053 5.76408C7.95053 5.77338 7.93699 5.78098 7.92046 5.78098C7.90391 5.78098 7.87942 5.7962 7.86601 5.81479C7.85261 5.83338 7.82811 5.8486 7.81157 5.8486C7.79503 5.8486 7.78149 5.8562 7.78149 5.8655C7.78149 5.8748 7.76934 5.8824 7.75446 5.8824C7.73961 5.8824 7.70612 5.90522 7.68007 5.93312C7.65402 5.96101 7.6236 5.98383 7.61246 5.98383C7.60132 5.98383 7.57089 6.00665 7.54485 6.03454C7.5188 6.06243 7.48837 6.08525 7.47723 6.08525C7.46609 6.08525 7.43567 6.10807 7.40962 6.13596C7.38357 6.16385 7.3536 6.18667 7.34302 6.18667C7.33245 6.18667 7.25593 6.25513 7.17297 6.3388C7.09001 6.42247 7.01399 6.49093 7.00402 6.49093C6.98046 6.49093 6.86871 6.60268 6.86871 6.62624C6.86871 6.63621 6.80025 6.71223 6.71658 6.79519C6.6329 6.87815 6.56444 6.95468 6.56444 6.96524C6.56444 6.97582 6.54162 7.00579 6.51373 7.03184C6.48584 7.05789 6.46302 7.08831 6.46302 7.09945C6.46302 7.11059 6.4402 7.14102 6.41231 7.16707C6.38442 7.19312 6.3616 7.22354 6.3616 7.23468C6.3616 7.24582 6.33878 7.27625 6.31089 7.3023C6.283 7.32834 6.26018 7.36183 6.26018 7.37669C6.26018 7.39156 6.25258 7.40372 6.24328 7.40372C6.23398 7.40372 6.22638 7.41726 6.22638 7.43379C6.22638 7.45034 6.21116 7.47483 6.19257 7.48823C6.17397 7.50164 6.15876 7.52613 6.15876 7.54268C6.15876 7.55921 6.15115 7.57275 6.14186 7.57275C6.13256 7.57275 6.12495 7.58629 6.12495 7.60282C6.12495 7.61937 6.10974 7.64386 6.09115 7.65727C6.07255 7.67067 6.05734 7.69517 6.05734 7.71171C6.05734 7.72825 6.04973 7.74179 6.04044 7.74179C6.03114 7.74179 6.02353 7.757 6.02353 7.77559C6.02353 7.79419 6.01593 7.8094 6.00663 7.8094C5.99733 7.8094 5.98973 7.82461 5.98973 7.84321C5.98973 7.8618 5.98212 7.87701 5.97282 7.87701C5.96353 7.87701 5.95592 7.89223 5.95592 7.91082C5.95592 7.92941 5.94831 7.94463 5.93902 7.94463C5.92972 7.94463 5.92211 7.95984 5.92211 7.97843C5.92211 7.99703 5.91451 8.01224 5.90521 8.01224C5.89591 8.01224 5.88831 8.02745 5.88831 8.04605C5.88831 8.06464 5.8807 8.07985 5.8714 8.07985C5.86211 8.07985 5.8545 8.09507 5.8545 8.11366C5.8545 8.13226 5.84689 8.14747 5.8376 8.14747C5.8283 8.14747 5.82069 8.16268 5.82069 8.18128C5.82069 8.19987 5.81309 8.21508 5.80379 8.21508C5.79449 8.21508 5.78688 8.2379 5.78688 8.26579C5.78688 8.29368 5.77928 8.3165 5.76998 8.3165C5.76068 8.3165 5.75308 8.33172 5.75308 8.35031C5.75308 8.3689 5.74547 8.38412 5.73617 8.38412C5.72688 8.38412 5.71927 8.40694 5.71927 8.43483C5.71927 8.46272 5.71166 8.48554 5.70237 8.48554C5.69307 8.48554 5.68546 8.50836 5.68546 8.53625C5.68546 8.56414 5.67786 8.58696 5.66856 8.58696C5.65926 8.58696 5.65166 8.60978 5.65166 8.63767C5.65166 8.66556 5.64405 8.68838 5.63475 8.68838C5.62546 8.68838 5.61785 8.7112 5.61785 8.73909C5.61785 8.76698 5.61024 8.7898 5.60095 8.7898C5.59165 8.7898 5.58404 8.82023 5.58404 8.85741C5.58404 8.8946 5.57644 8.92503 5.56714 8.92503C5.55784 8.92503 5.55024 8.95545 5.55024 8.99264C5.55024 9.02983 5.54263 9.06026 5.53333 9.06026C5.52404 9.06026 5.51643 9.08308 5.51643 9.11097C5.51643 9.13886 5.50882 9.16168 5.49953 9.16168C5.49023 9.16168 5.48262 9.19971 5.48262 9.24619C5.48262 9.29268 5.47502 9.33071 5.46572 9.33071C5.45607 9.33071 5.44882 9.38142 5.44882 9.44904C5.44882 9.51665 5.44156 9.56736 5.43191 9.56736C5.42177 9.56736 5.41501 9.63497 5.41501 9.73639C5.41501 9.83782 5.40825 9.90543 5.39811 9.90543C5.3873 9.90543 5.3812 10.0519 5.3812 10.3111C5.3812 10.5703 5.3873 10.7168 5.39811 10.7168C5.40825 10.7168 5.41501 10.7844 5.41501 10.8858C5.41501 10.9873 5.42177 11.0549 5.43191 11.0549C5.44156 11.0549 5.44882 11.1056 5.44882 11.1732C5.44882 11.2408 5.45607 11.2915 5.46572 11.2915C5.47502 11.2915 5.48262 11.3295 5.48262 11.376C5.48262 11.4225 5.49023 11.4605 5.49953 11.4605C5.50882 11.4605 5.51643 11.4834 5.51643 11.5113C5.51643 11.5391 5.52404 11.562 5.53333 11.562C5.54263 11.562 5.55024 11.5924 5.55024 11.6296C5.55024 11.6668 5.55784 11.6972 5.56714 11.6972C5.57644 11.6972 5.58404 11.7276 5.58404 11.7648C5.58404 11.802 5.59165 11.8324 5.60095 11.8324C5.61024 11.8324 5.61785 11.8552 5.61785 11.8831C5.61785 11.911 5.62546 11.9338 5.63475 11.9338C5.64405 11.9338 5.65166 11.9567 5.65166 11.9846C5.65166 12.0124 5.65926 12.0353 5.66856 12.0353C5.67786 12.0353 5.68546 12.0581 5.68546 12.086C5.68546 12.1139 5.69307 12.1367 5.70237 12.1367C5.71166 12.1367 5.71927 12.1595 5.71927 12.1874C5.71927 12.2153 5.72688 12.2381 5.73617 12.2381C5.74547 12.2381 5.75308 12.2533 5.75308 12.2719C5.75308 12.2905 5.76068 12.3057 5.76998 12.3057C5.77928 12.3057 5.78688 12.3285 5.78688 12.3564C5.78688 12.3843 5.79449 12.4071 5.80379 12.4071C5.81309 12.4071 5.82069 12.4224 5.82069 12.4409C5.82069 12.4595 5.8283 12.4748 5.8376 12.4748C5.84689 12.4748 5.8545 12.49 5.8545 12.5086C5.8545 12.5272 5.86211 12.5424 5.8714 12.5424C5.8807 12.5424 5.88831 12.5576 5.88831 12.5762C5.88831 12.5948 5.89591 12.61 5.90521 12.61C5.91451 12.61 5.92211 12.6252 5.92211 12.6438C5.92211 12.6624 5.92972 12.6776 5.93902 12.6776C5.94831 12.6776 5.95592 12.6928 5.95592 12.7114C5.95592 12.73 5.96353 12.7452 5.97282 12.7452C5.98212 12.7452 5.98973 12.7604 5.98973 12.779C5.98973 12.7976 5.99733 12.8128 6.00663 12.8128C6.01593 12.8128 6.02353 12.828 6.02353 12.8466C6.02353 12.8652 6.03114 12.8804 6.04044 12.8804C6.04973 12.8804 6.05734 12.894 6.05734 12.9105C6.05734 12.9271 6.07255 12.9516 6.09115 12.965C6.10974 12.9784 6.12495 13.0029 6.12495 13.0194C6.12495 13.0359 6.13256 13.0495 6.14186 13.0495C6.15115 13.0495 6.15876 13.063 6.15876 13.0795C6.15876 13.0961 6.17397 13.1206 6.19257 13.134C6.21116 13.1474 6.22638 13.1719 6.22638 13.1884C6.22638 13.205 6.23398 13.2185 6.24328 13.2185C6.25258 13.2185 6.26018 13.2307 6.26018 13.2455C6.26018 13.2604 6.283 13.2939 6.31089 13.3199C6.33878 13.346 6.3616 13.3764 6.3616 13.3875C6.3616 13.3987 6.38442 13.4291 6.41231 13.4552C6.4402 13.4812 6.46302 13.5116 6.46302 13.5228C6.46302 13.5339 6.48584 13.5643 6.51373 13.5904C6.54162 13.6164 6.56444 13.6464 6.56444 13.657C6.56444 13.6675 6.6329 13.7441 6.71658 13.827C6.80025 13.91 6.86871 13.986 6.86871 13.996C6.86871 14.0195 6.98046 14.1313 7.00402 14.1313C7.01399 14.1313 7.09001 14.1998 7.17297 14.2834C7.25593 14.3671 7.33245 14.4356 7.34302 14.4356C7.3536 14.4356 7.38357 14.4584 7.40962 14.4863C7.43567 14.5142 7.46609 14.537 7.47723 14.537C7.48837 14.537 7.5188 14.5598 7.54485 14.5877C7.57089 14.6156 7.60132 14.6384 7.61246 14.6384C7.6236 14.6384 7.65402 14.6612 7.68007 14.6891C7.70612 14.717 7.73961 14.7398 7.75446 14.7398C7.76934 14.7398 7.78149 14.7474 7.78149 14.7567C7.78149 14.766 7.79503 14.7736 7.81157 14.7736C7.82811 14.7736 7.85261 14.7888 7.86601 14.8074C7.87942 14.826 7.90391 14.8412 7.92046 14.8412C7.93699 14.8412 7.95053 14.8488 7.95053 14.8581C7.95053 14.8674 7.96407 14.875 7.9806 14.875C7.99715 14.875 8.02164 14.8903 8.03505 14.9089C8.04845 14.9274 8.07294 14.9427 8.08949 14.9427C8.10602 14.9427 8.11956 14.9503 8.11956 14.9596C8.11956 14.9689 8.13478 14.9765 8.15337 14.9765C8.17196 14.9765 8.18718 14.9841 8.18718 14.9934C8.18718 15.0027 8.20239 15.0103 8.22098 15.0103C8.23958 15.0103 8.25479 15.0179 8.25479 15.0272C8.25479 15.0365 8.27 15.0441 8.2886 15.0441C8.30719 15.0441 8.3224 15.0517 8.3224 15.061C8.3224 15.0703 8.33762 15.0779 8.35621 15.0779C8.3748 15.0779 8.39002 15.0855 8.39002 15.0948C8.39002 15.1041 8.40523 15.1117 8.42383 15.1117C8.44242 15.1117 8.45763 15.1193 8.45763 15.1286C8.45763 15.1379 8.47285 15.1455 8.49144 15.1455C8.51003 15.1455 8.52525 15.1531 8.52525 15.1624C8.52525 15.1717 8.54046 15.1793 8.55905 15.1793C8.57765 15.1793 8.59286 15.1869 8.59286 15.1962C8.59286 15.2055 8.61568 15.2131 8.64357 15.2131C8.67146 15.2131 8.69428 15.2207 8.69428 15.23C8.69428 15.2393 8.70949 15.2469 8.72809 15.2469C8.74668 15.2469 8.76189 15.2545 8.76189 15.2638C8.76189 15.2731 8.78471 15.2807 8.8126 15.2807C8.8405 15.2807 8.86331 15.2883 8.86331 15.2976C8.86331 15.3069 8.88614 15.3145 8.91403 15.3145C8.94192 15.3145 8.96474 15.3221 8.96474 15.3314C8.96474 15.3407 8.98756 15.3483 9.01545 15.3483C9.04334 15.3483 9.06616 15.356 9.06616 15.3652C9.06616 15.3745 9.08898 15.3822 9.11687 15.3822C9.14476 15.3822 9.16758 15.3898 9.16758 15.3991C9.16758 15.4084 9.198 15.416 9.23519 15.416C9.27238 15.416 9.3028 15.4236 9.3028 15.4329C9.3028 15.4422 9.33323 15.4498 9.37042 15.4498C9.40761 15.4498 9.43803 15.4574 9.43803 15.4667C9.43803 15.476 9.46085 15.4836 9.48874 15.4836C9.51663 15.4836 9.53945 15.4912 9.53945 15.5005C9.53945 15.5098 9.57749 15.5174 9.62397 15.5174C9.67045 15.5174 9.70849 15.525 9.70849 15.5343C9.70849 15.5439 9.7592 15.5512 9.82681 15.5512C9.89443 15.5512 9.94514 15.5584 9.94514 15.5681C9.94514 15.5782 10.0128 15.585 10.1142 15.585C10.2156 15.585 10.2832 15.5918 10.2832 15.6019C10.2832 15.6127 10.4297 15.6188 10.6889 15.6188C10.9481 15.6188 11.0946 15.6127 11.0946 15.6019C11.0946 15.5918 11.1622 15.585 11.2636 15.585C11.365 15.585 11.4326 15.5782 11.4326 15.5681C11.4326 15.5584 11.4834 15.5512 11.551 15.5512C11.6186 15.5512 11.6693 15.5439 11.6693 15.5343C11.6693 15.525 11.7073 15.5174 11.7538 15.5174C11.8003 15.5174 11.8383 15.5098 11.8383 15.5005C11.8383 15.4912 11.8611 15.4836 11.889 15.4836C11.9169 15.4836 11.9397 15.476 11.9397 15.4667C11.9397 15.4574 11.9702 15.4498 12.0074 15.4498C12.0445 15.4498 12.075 15.4422 12.075 15.4329C12.075 15.4236 12.1054 15.416 12.1426 15.416C12.1798 15.416 12.2102 15.4084 12.2102 15.3991C12.2102 15.3898 12.233 15.3822 12.2609 15.3822C12.2888 15.3822 12.3116 15.3745 12.3116 15.3652C12.3116 15.356 12.3344 15.3483 12.3623 15.3483C12.3902 15.3483 12.413 15.3407 12.413 15.3314C12.413 15.3221 12.4359 15.3145 12.4638 15.3145C12.4916 15.3145 12.5145 15.3069 12.5145 15.2976C12.5145 15.2883 12.5373 15.2807 12.5652 15.2807C12.5931 15.2807 12.6159 15.2731 12.6159 15.2638C12.6159 15.2545 12.6311 15.2469 12.6497 15.2469C12.6683 15.2469 12.6835 15.2393 12.6835 15.23C12.6835 15.2207 12.7063 15.2131 12.7342 15.2131C12.7621 15.2131 12.7849 15.2055 12.7849 15.1962C12.7849 15.1869 12.8001 15.1793 12.8187 15.1793C12.8373 15.1793 12.8525 15.1717 12.8525 15.1624C12.8525 15.1531 12.8677 15.1455 12.8863 15.1455C12.9049 15.1455 12.9201 15.1379 12.9201 15.1286C12.9201 15.1193 12.9354 15.1117 12.954 15.1117C12.9725 15.1117 12.9878 15.1041 12.9878 15.0948C12.9878 15.0855 13.003 15.0779 13.0216 15.0779C13.0402 15.0779 13.0554 15.0703 13.0554 15.061C13.0554 15.0517 13.0706 15.0441 13.0892 15.0441C13.1078 15.0441 13.123 15.0365 13.123 15.0272C13.123 15.0179 13.1382 15.0103 13.1568 15.0103C13.1754 15.0103 13.1906 15.0027 13.1906 14.9934C13.1906 14.9841 13.2058 14.9765 13.2244 14.9765C13.243 14.9765 13.2582 14.9689 13.2582 14.9596C13.2582 14.9503 13.2718 14.9427 13.2883 14.9427C13.3048 14.9427 13.3293 14.9274 13.3427 14.9089C13.3561 14.8903 13.3806 14.875 13.3972 14.875C13.4137 14.875 13.4272 14.8674 13.4272 14.8581C13.4272 14.8488 13.4408 14.8412 13.4573 14.8412C13.4739 14.8412 13.4984 14.826 13.5118 14.8074C13.5252 14.7888 13.5497 14.7736 13.5662 14.7736C13.5827 14.7736 13.5963 14.766 13.5963 14.7567C13.5963 14.7474 13.6084 14.7398 13.6233 14.7398C13.6382 14.7398 13.6717 14.717 13.6977 14.6891C13.7238 14.6612 13.7542 14.6384 13.7653 14.6384C13.7765 14.6384 13.8069 14.6156 13.8329 14.5877C13.859 14.5598 13.8894 14.537 13.9005 14.537C13.9117 14.537 13.9421 14.5142 13.9682 14.4863C13.9942 14.4584 14.0242 14.4356 14.0348 14.4356C14.0453 14.4356 14.1218 14.3671 14.2048 14.2834C14.2878 14.1998 14.3638 14.1313 14.3738 14.1313C14.3973 14.1313 14.5091 14.0195 14.5091 13.996C14.5091 13.986 14.5775 13.91 14.6612 13.827C14.7449 13.7441 14.8133 13.6675 14.8133 13.657C14.8133 13.6464 14.8362 13.6164 14.864 13.5904C14.8919 13.5643 14.9148 13.5339 14.9148 13.5228C14.9148 13.5116 14.9376 13.4812 14.9655 13.4552C14.9934 13.4291 15.0162 13.3987 15.0162 13.3875C15.0162 13.3764 15.039 13.346 15.0669 13.3199C15.0948 13.2939 15.1176 13.2604 15.1176 13.2455C15.1176 13.2307 15.1252 13.2185 15.1345 13.2185C15.1438 13.2185 15.1514 13.205 15.1514 13.1884C15.1514 13.1719 15.1666 13.1474 15.1852 13.134C15.2038 13.1206 15.219 13.0961 15.219 13.0795C15.219 13.063 15.2266 13.0495 15.2359 13.0495C15.2452 13.0495 15.2528 13.0359 15.2528 13.0194C15.2528 13.0029 15.268 12.9784 15.2866 12.965C15.3052 12.9516 15.3204 12.9271 15.3204 12.9105C15.3204 12.894 15.328 12.8804 15.3373 12.8804C15.3466 12.8804 15.3542 12.8652 15.3542 12.8466C15.3542 12.828 15.3619 12.8128 15.3711 12.8128C15.3804 12.8128 15.3881 12.7976 15.3881 12.779C15.3881 12.7604 15.3957 12.7452 15.405 12.7452C15.4143 12.7452 15.4219 12.73 15.4219 12.7114C15.4219 12.6928 15.4295 12.6776 15.4388 12.6776C15.4481 12.6776 15.4557 12.6624 15.4557 12.6438C15.4557 12.6252 15.4633 12.61 15.4726 12.61C15.4819 12.61 15.4895 12.5948 15.4895 12.5762C15.4895 12.5576 15.4971 12.5424 15.5064 12.5424C15.5157 12.5424 15.5233 12.5272 15.5233 12.5086C15.5233 12.49 15.5309 12.4748 15.5402 12.4748C15.5495 12.4748 15.5571 12.4595 15.5571 12.4409C15.5571 12.4224 15.5647 12.4071 15.574 12.4071C15.5833 12.4071 15.5909 12.3843 15.5909 12.3564C15.5909 12.3285 15.5985 12.3057 15.6078 12.3057C15.6171 12.3057 15.6247 12.2905 15.6247 12.2719C15.6247 12.2533 15.6323 12.2381 15.6416 12.2381C15.6509 12.2381 15.6585 12.2153 15.6585 12.1874C15.6585 12.1595 15.6661 12.1367 15.6754 12.1367C15.6847 12.1367 15.6923 12.1139 15.6923 12.086C15.6923 12.0581 15.6999 12.0353 15.7092 12.0353C15.7185 12.0353 15.7261 12.0124 15.7261 11.9846C15.7261 11.9567 15.7337 11.9338 15.743 11.9338C15.7523 11.9338 15.7599 11.911 15.7599 11.8831C15.7599 11.8552 15.7675 11.8324 15.7768 11.8324C15.7861 11.8324 15.7937 11.802 15.7937 11.7648C15.7937 11.7276 15.8013 11.6972 15.8106 11.6972C15.8199 11.6972 15.8275 11.6668 15.8275 11.6296C15.8275 11.5924 15.8351 11.562 15.8444 11.562C15.8537 11.562 15.8613 11.5391 15.8613 11.5113C15.8613 11.4834 15.869 11.4605 15.8783 11.4605C15.8875 11.4605 15.8952 11.4225 15.8952 11.376C15.8952 11.3295 15.9028 11.2915 15.9121 11.2915C15.9217 11.2915 15.929 11.2408 15.929 11.1732C15.929 11.1056 15.9362 11.0549 15.9459 11.0549C15.956 11.0549 15.9628 10.9873 15.9628 10.8858C15.9628 10.7844 15.9695 10.7168 15.9797 10.7168C15.9905 10.7168 15.9966 10.5703 15.9966 10.3111C15.9966 10.0519 15.9905 9.90543 15.9797 9.90543C15.9695 9.90543 15.9628 9.83782 15.9628 9.73639C15.9628 9.63497 15.956 9.56736 15.9459 9.56736C15.9362 9.56736 15.929 9.51665 15.929 9.44904C15.929 9.38142 15.9217 9.33071 15.9121 9.33071C15.9028 9.33071 15.8952 9.29268 15.8952 9.24619C15.8952 9.19971 15.8875 9.16168 15.8783 9.16168C15.869 9.16168 15.8613 9.13886 15.8613 9.11097C15.8613 9.08308 15.8537 9.06026 15.8444 9.06026C15.8351 9.06026 15.8275 9.02983 15.8275 8.99264C15.8275 8.95545 15.8199 8.92503 15.8106 8.92503C15.8013 8.92503 15.7937 8.8946 15.7937 8.85741C15.7937 8.82023 15.7861 8.7898 15.7768 8.7898C15.7675 8.7898 15.7599 8.76698 15.7599 8.73909C15.7599 8.7112 15.7523 8.68838 15.743 8.68838C15.7337 8.68838 15.7261 8.66556 15.7261 8.63767C15.7261 8.60978 15.7185 8.58696 15.7092 8.58696C15.6999 8.58696 15.6923 8.56414 15.6923 8.53625C15.6923 8.50836 15.6847 8.48554 15.6754 8.48554C15.6661 8.48554 15.6585 8.46272 15.6585 8.43483C15.6585 8.40694 15.6509 8.38412 15.6416 8.38412C15.6323 8.38412 15.6247 8.3689 15.6247 8.35031C15.6247 8.33172 15.6171 8.3165 15.6078 8.3165C15.5985 8.3165 15.5909 8.29368 15.5909 8.26579C15.5909 8.2379 15.5833 8.21508 15.574 8.21508C15.5647 8.21508 15.5571 8.19987 15.5571 8.18128C15.5571 8.16268 15.5495 8.14747 15.5402 8.14747C15.5309 8.14747 15.5233 8.13226 15.5233 8.11366C15.5233 8.09507 15.5157 8.07985 15.5064 8.07985C15.4971 8.07985 15.4895 8.06464 15.4895 8.04605C15.4895 8.02745 15.4819 8.01224 15.4726 8.01224C15.4633 8.01224 15.4557 7.99703 15.4557 7.97843C15.4557 7.95984 15.4481 7.94463 15.4388 7.94463C15.4295 7.94463 15.4219 7.92941 15.4219 7.91082C15.4219 7.89223 15.4143 7.87701 15.405 7.87701C15.3957 7.87701 15.3881 7.8618 15.3881 7.84321C15.3881 7.82461 15.3804 7.8094 15.3711 7.8094C15.3619 7.8094 15.3542 7.79419 15.3542 7.77559C15.3542 7.757 15.3466 7.74179 15.3373 7.74179C15.328 7.74179 15.3204 7.72825 15.3204 7.71171C15.3204 7.69517 15.3052 7.67067 15.2866 7.65727C15.268 7.64386 15.2528 7.61937 15.2528 7.60282C15.2528 7.58629 15.2452 7.57275 15.2359 7.57275C15.2266 7.57275 15.219 7.55921 15.219 7.54268C15.219 7.52613 15.2038 7.50164 15.1852 7.48823C15.1666 7.47483 15.1514 7.45034 15.1514 7.43379C15.1514 7.41726 15.1438 7.40372 15.1345 7.40372C15.1252 7.40372 15.1176 7.39156 15.1176 7.37669C15.1176 7.36183 15.0948 7.32834 15.0669 7.3023C15.039 7.27625 15.0162 7.24582 15.0162 7.23468C15.0162 7.22354 14.9934 7.19312 14.9655 7.16707C14.9376 7.14102 14.9148 7.11059 14.9148 7.09945C14.9148 7.08831 14.8919 7.05789 14.864 7.03184C14.8362 7.00579 14.8133 6.97582 14.8133 6.96524C14.8133 6.95468 14.7449 6.87815 14.6612 6.79519C14.5775 6.71223 14.5091 6.63621 14.5091 6.62624C14.5091 6.60268 14.3973 6.49093 14.3738 6.49093C14.3638 6.49093 14.2878 6.42247 14.2048 6.3388C14.1218 6.25513 14.0453 6.18667 14.0348 6.18667C14.0242 6.18667 13.9942 6.16385 13.9682 6.13596C13.9421 6.10807 13.9117 6.08525 13.9005 6.08525C13.8894 6.08525 13.859 6.06243 13.8329 6.03454C13.8069 6.00665 13.7765 5.98383 13.7653 5.98383C13.7542 5.98383 13.7238 5.96101 13.6977 5.93312C13.6717 5.90522 13.6382 5.8824 13.6233 5.8824C13.6084 5.8824 13.5963 5.8748 13.5963 5.8655C13.5963 5.8562 13.5827 5.8486 13.5662 5.8486C13.5497 5.8486 13.5252 5.83338 13.5118 5.81479C13.4984 5.7962 13.4739 5.78098 13.4573 5.78098C13.4408 5.78098 13.4272 5.77338 13.4272 5.76408C13.4272 5.75478 13.4137 5.74718 13.3972 5.74718C13.3806 5.74718 13.3561 5.73196 13.3427 5.71337C13.3293 5.69478 13.3048 5.67956 13.2883 5.67956C13.2718 5.67956 13.2582 5.67196 13.2582 5.66266C13.2582 5.65336 13.243 5.64576 13.2244 5.64576C13.2058 5.64576 13.1906 5.63815 13.1906 5.62885C13.1906 5.61956 13.1754 5.61195 13.1568 5.61195C13.1382 5.61195 13.123 5.60434 13.123 5.59505C13.123 5.58575 13.1078 5.57814 13.0892 5.57814C13.0706 5.57814 13.0554 5.57054 13.0554 5.56124C13.0554 5.55194 13.0402 5.54434 13.0216 5.54434C13.003 5.54434 12.9878 5.53673 12.9878 5.52743C12.9878 5.51814 12.9725 5.51053 12.954 5.51053C12.9354 5.51053 12.9201 5.50292 12.9201 5.49363C12.9201 5.48433 12.9049 5.47672 12.8863 5.47672C12.8677 5.47672 12.8525 5.46912 12.8525 5.45982C12.8525 5.45052 12.8373 5.44291 12.8187 5.44291C12.8001 5.44291 12.7849 5.43531 12.7849 5.42601C12.7849 5.41671 12.7621 5.40911 12.7342 5.40911C12.7063 5.40911 12.6835 5.4015 12.6835 5.3922C12.6835 5.38291 12.6683 5.3753 12.6497 5.3753C12.6311 5.3753 12.6159 5.36769 12.6159 5.3584C12.6159 5.3491 12.5931 5.34149 12.5652 5.34149C12.5373 5.34149 12.5145 5.33389 12.5145 5.32459C12.5145 5.31529 12.4916 5.30769 12.4638 5.30769C12.4359 5.30769 12.413 5.30008 12.413 5.29078C12.413 5.28149 12.3902 5.27388 12.3623 5.27388C12.3344 5.27388 12.3116 5.26627 12.3116 5.25698C12.3116 5.24768 12.2888 5.24007 12.2609 5.24007C12.233 5.24007 12.2102 5.23247 12.2102 5.22317C12.2102 5.21387 12.1798 5.20627 12.1426 5.20627C12.1054 5.20627 12.075 5.19866 12.075 5.18936C12.075 5.18007 12.0445 5.17246 12.0074 5.17246C11.9702 5.17246 11.9397 5.16485 11.9397 5.15556C11.9397 5.14626 11.9169 5.13865 11.889 5.13865C11.8611 5.13865 11.8383 5.13105 11.8383 5.12175C11.8383 5.11245 11.8003 5.10485 11.7538 5.10485C11.7073 5.10485 11.6693 5.09724 11.6693 5.08794C11.6693 5.07829 11.6186 5.07104 11.551 5.07104C11.4834 5.07104 11.4326 5.06379 11.4326 5.05414C11.4326 5.04399 11.365 5.03723 11.2636 5.03723C11.1622 5.03723 11.0946 5.03047 11.0946 5.02033C11.0946 5.00953 10.9481 5.00342 10.6889 5.00342C10.4297 5.00342 10.2832 5.00953 10.2832 5.02033ZM11.027 6.8459C11.027 6.85555 11.0777 6.86281 11.1453 6.86281C11.2129 6.86281 11.2636 6.87006 11.2636 6.87971C11.2636 6.88901 11.3016 6.89661 11.3481 6.89661C11.3946 6.89661 11.4326 6.90422 11.4326 6.91352C11.4326 6.92281 11.4631 6.93042 11.5003 6.93042C11.5374 6.93042 11.5679 6.93803 11.5679 6.94732C11.5679 6.95662 11.5983 6.96423 11.6355 6.96423C11.6727 6.96423 11.7031 6.97183 11.7031 6.98113C11.7031 6.99043 11.7259 6.99803 11.7538 6.99803C11.7817 6.99803 11.8045 7.00564 11.8045 7.01494C11.8045 7.02423 11.8273 7.03184 11.8552 7.03184C11.8831 7.03184 11.9059 7.03945 11.9059 7.04874C11.9059 7.05804 11.9212 7.06565 11.9397 7.06565C11.9583 7.06565 11.9736 7.07325 11.9736 7.08255C11.9736 7.09185 11.9964 7.09945 12.0243 7.09945C12.0522 7.09945 12.075 7.10706 12.075 7.11636C12.075 7.12565 12.0902 7.13326 12.1088 7.13326C12.1274 7.13326 12.1426 7.14087 12.1426 7.15016C12.1426 7.15946 12.1578 7.16707 12.1764 7.16707C12.195 7.16707 12.2102 7.17467 12.2102 7.18397C12.2102 7.19327 12.2254 7.20087 12.244 7.20087C12.2626 7.20087 12.2778 7.20848 12.2778 7.21778C12.2778 7.22708 12.293 7.23468 12.3116 7.23468C12.3302 7.23468 12.3454 7.24229 12.3454 7.25159C12.3454 7.26088 12.359 7.26849 12.3755 7.26849C12.392 7.26849 12.4165 7.2837 12.4299 7.3023C12.4433 7.32089 12.4678 7.3361 12.4844 7.3361C12.5009 7.3361 12.5145 7.34371 12.5145 7.35301C12.5145 7.3623 12.5297 7.36991 12.5483 7.36991C12.5669 7.36991 12.5821 7.37752 12.5821 7.38681C12.5821 7.39611 12.5941 7.40372 12.6088 7.40372C12.6234 7.40372 12.6647 7.43414 12.7004 7.47133C12.7361 7.50852 12.7743 7.53894 12.7853 7.53894C12.7962 7.53894 12.8265 7.56176 12.8525 7.58965C12.8786 7.61755 12.9083 7.64036 12.9186 7.64036C12.9431 7.64036 13.3596 8.0569 13.3596 8.08136C13.3596 8.09167 13.3825 8.12142 13.4103 8.14747C13.4382 8.17352 13.4611 8.20379 13.4611 8.21474C13.4611 8.22568 13.4915 8.26387 13.5287 8.2996C13.5659 8.33533 13.5963 8.37656 13.5963 8.39125C13.5963 8.40592 13.6039 8.41792 13.6132 8.41792C13.6225 8.41792 13.6301 8.43314 13.6301 8.45173C13.6301 8.47032 13.6377 8.48554 13.647 8.48554C13.6563 8.48554 13.6639 8.49908 13.6639 8.51561C13.6639 8.53216 13.6791 8.55665 13.6977 8.57006C13.7163 8.58346 13.7315 8.60795 13.7315 8.6245C13.7315 8.64103 13.7391 8.65457 13.7484 8.65457C13.7577 8.65457 13.7653 8.66979 13.7653 8.68838C13.7653 8.70697 13.7729 8.72219 13.7822 8.72219C13.7915 8.72219 13.7991 8.7374 13.7991 8.75599C13.7991 8.77459 13.8067 8.7898 13.816 8.7898C13.8253 8.7898 13.8329 8.80501 13.8329 8.82361C13.8329 8.8422 13.8405 8.85741 13.8498 8.85741C13.8591 8.85741 13.8667 8.87263 13.8667 8.89122C13.8667 8.90981 13.8743 8.92503 13.8836 8.92503C13.8929 8.92503 13.9005 8.94785 13.9005 8.97574C13.9005 9.00363 13.9082 9.02645 13.9174 9.02645C13.9267 9.02645 13.9344 9.04166 13.9344 9.06026C13.9344 9.07885 13.942 9.09406 13.9513 9.09406C13.9606 9.09406 13.9682 9.11688 13.9682 9.14477C13.9682 9.17266 13.9758 9.19548 13.9851 9.19548C13.9944 9.19548 14.002 9.2183 14.002 9.24619C14.002 9.27408 14.0096 9.2969 14.0189 9.2969C14.0282 9.2969 14.0358 9.32733 14.0358 9.36452C14.0358 9.40171 14.0434 9.43213 14.0527 9.43213C14.062 9.43213 14.0696 9.46256 14.0696 9.49975C14.0696 9.53693 14.0772 9.56736 14.0865 9.56736C14.0958 9.56736 14.1034 9.60539 14.1034 9.65188C14.1034 9.69836 14.111 9.73639 14.1203 9.73639C14.1299 9.73639 14.1372 9.7871 14.1372 9.85472C14.1372 9.92233 14.1444 9.97304 14.1541 9.97304C14.1648 9.97304 14.171 10.097 14.171 10.3111C14.171 10.5252 14.1648 10.6492 14.1541 10.6492C14.1444 10.6492 14.1372 10.6999 14.1372 10.7675C14.1372 10.8351 14.1299 10.8858 14.1203 10.8858C14.111 10.8858 14.1034 10.9239 14.1034 10.9703C14.1034 11.0168 14.0958 11.0549 14.0865 11.0549C14.0772 11.0549 14.0696 11.0853 14.0696 11.1225C14.0696 11.1597 14.062 11.1901 14.0527 11.1901C14.0434 11.1901 14.0358 11.2205 14.0358 11.2577C14.0358 11.2949 14.0282 11.3253 14.0189 11.3253C14.0096 11.3253 14.002 11.3481 14.002 11.376C14.002 11.4039 13.9944 11.4267 13.9851 11.4267C13.9758 11.4267 13.9682 11.4496 13.9682 11.4775C13.9682 11.5053 13.9606 11.5282 13.9513 11.5282C13.942 11.5282 13.9344 11.5434 13.9344 11.562C13.9344 11.5806 13.9267 11.5958 13.9174 11.5958C13.9082 11.5958 13.9005 11.6186 13.9005 11.6465C13.9005 11.6744 13.8929 11.6972 13.8836 11.6972C13.8743 11.6972 13.8667 11.7124 13.8667 11.731C13.8667 11.7496 13.8591 11.7648 13.8498 11.7648C13.8405 11.7648 13.8329 11.78 13.8329 11.7986C13.8329 11.8172 13.8253 11.8324 13.816 11.8324C13.8067 11.8324 13.7991 11.8476 13.7991 11.8662C13.7991 11.8848 13.7915 11.9 13.7822 11.9C13.7729 11.9 13.7653 11.9152 13.7653 11.9338C13.7653 11.9524 13.7577 11.9677 13.7484 11.9677C13.7391 11.9677 13.7315 11.9812 13.7315 11.9977C13.7315 12.0143 13.7163 12.0388 13.6977 12.0522C13.6791 12.0656 13.6639 12.0901 13.6639 12.1066C13.6639 12.1231 13.6563 12.1367 13.647 12.1367C13.6377 12.1367 13.6301 12.1519 13.6301 12.1705C13.6301 12.1891 13.6225 12.2043 13.6132 12.2043C13.6039 12.2043 13.5963 12.2163 13.5963 12.231C13.5963 12.2457 13.5659 12.2869 13.5287 12.3226C13.4915 12.3584 13.4611 12.3965 13.4611 12.4075C13.4611 12.4184 13.4382 12.4487 13.4103 12.4748C13.3825 12.5008 13.3596 12.5306 13.3596 12.5409C13.3596 12.5653 12.9431 12.9819 12.9186 12.9819C12.9083 12.9819 12.8786 13.0047 12.8525 13.0326C12.8265 13.0605 12.7962 13.0833 12.7853 13.0833C12.7743 13.0833 12.7361 13.1137 12.7004 13.1509C12.6647 13.1881 12.6234 13.2185 12.6088 13.2185C12.5941 13.2185 12.5821 13.2261 12.5821 13.2354C12.5821 13.2447 12.5669 13.2523 12.5483 13.2523C12.5297 13.2523 12.5145 13.2599 12.5145 13.2692C12.5145 13.2785 12.5009 13.2861 12.4844 13.2861C12.4678 13.2861 12.4433 13.3013 12.4299 13.3199C12.4165 13.3385 12.392 13.3537 12.3755 13.3537C12.359 13.3537 12.3454 13.3613 12.3454 13.3706C12.3454 13.3799 12.3302 13.3875 12.3116 13.3875C12.293 13.3875 12.2778 13.3951 12.2778 13.4044C12.2778 13.4137 12.2626 13.4213 12.244 13.4213C12.2254 13.4213 12.2102 13.429 12.2102 13.4383C12.2102 13.4475 12.195 13.4552 12.1764 13.4552C12.1578 13.4552 12.1426 13.4628 12.1426 13.4721C12.1426 13.4814 12.1274 13.489 12.1088 13.489C12.0902 13.489 12.075 13.4966 12.075 13.5059C12.075 13.5152 12.0522 13.5228 12.0243 13.5228C11.9964 13.5228 11.9736 13.5304 11.9736 13.5397C11.9736 13.549 11.9583 13.5566 11.9397 13.5566C11.9212 13.5566 11.9059 13.5642 11.9059 13.5735C11.9059 13.5828 11.8831 13.5904 11.8552 13.5904C11.8273 13.5904 11.8045 13.598 11.8045 13.6073C11.8045 13.6166 11.7817 13.6242 11.7538 13.6242C11.7259 13.6242 11.7031 13.6318 11.7031 13.6411C11.7031 13.6504 11.6727 13.658 11.6355 13.658C11.5983 13.658 11.5679 13.6656 11.5679 13.6749C11.5679 13.6842 11.5374 13.6918 11.5003 13.6918C11.4631 13.6918 11.4326 13.6994 11.4326 13.7087C11.4326 13.718 11.3946 13.7256 11.3481 13.7256C11.3016 13.7256 11.2636 13.7332 11.2636 13.7425C11.2636 13.7522 11.2129 13.7594 11.1453 13.7594C11.0777 13.7594 11.027 13.7667 11.027 13.7763C11.027 13.787 10.903 13.7932 10.6889 13.7932C10.4748 13.7932 10.3508 13.787 10.3508 13.7763C10.3508 13.7667 10.3001 13.7594 10.2325 13.7594C10.1649 13.7594 10.1142 13.7522 10.1142 13.7425C10.1142 13.7332 10.0761 13.7256 10.0297 13.7256C9.98317 13.7256 9.94514 13.718 9.94514 13.7087C9.94514 13.6994 9.91471 13.6918 9.87752 13.6918C9.84033 13.6918 9.80991 13.6842 9.80991 13.6749C9.80991 13.6656 9.77948 13.658 9.7423 13.658C9.70511 13.658 9.67468 13.6504 9.67468 13.6411C9.67468 13.6318 9.65186 13.6242 9.62397 13.6242C9.59608 13.6242 9.57326 13.6166 9.57326 13.6073C9.57326 13.598 9.55044 13.5904 9.52255 13.5904C9.49466 13.5904 9.47184 13.5828 9.47184 13.5735C9.47184 13.5642 9.45663 13.5566 9.43803 13.5566C9.41944 13.5566 9.40423 13.549 9.40423 13.5397C9.40423 13.5304 9.38141 13.5228 9.35352 13.5228C9.32562 13.5228 9.3028 13.5152 9.3028 13.5059C9.3028 13.4966 9.28759 13.489 9.269 13.489C9.2504 13.489 9.23519 13.4814 9.23519 13.4721C9.23519 13.4628 9.21998 13.4552 9.20138 13.4552C9.18279 13.4552 9.16758 13.4475 9.16758 13.4383C9.16758 13.429 9.15236 13.4213 9.13377 13.4213C9.11518 13.4213 9.09996 13.4137 9.09996 13.4044C9.09996 13.3951 9.08475 13.3875 9.06616 13.3875C9.04756 13.3875 9.03235 13.3799 9.03235 13.3706C9.03235 13.3613 9.01881 13.3537 9.00228 13.3537C8.98573 13.3537 8.96124 13.3385 8.94783 13.3199C8.93443 13.3013 8.90994 13.2861 8.89339 13.2861C8.87686 13.2861 8.86331 13.2785 8.86331 13.2692C8.86331 13.2599 8.8481 13.2523 8.82951 13.2523C8.81091 13.2523 8.7957 13.2447 8.7957 13.2354C8.7957 13.2261 8.7837 13.2185 8.76903 13.2185C8.75434 13.2185 8.71311 13.1881 8.67738 13.1509C8.64164 13.1137 8.60346 13.0833 8.59252 13.0833C8.58157 13.0833 8.55129 13.0605 8.52525 13.0326C8.4992 13.0047 8.46945 12.9819 8.45914 12.9819C8.43468 12.9819 8.01814 12.5653 8.01814 12.5409C8.01814 12.5306 7.99532 12.5008 7.96743 12.4748C7.93954 12.4487 7.91672 12.4184 7.91672 12.4075C7.91672 12.3965 7.88629 12.3584 7.84911 12.3226C7.81192 12.2869 7.78149 12.2457 7.78149 12.231C7.78149 12.2163 7.77389 12.2043 7.76459 12.2043C7.75529 12.2043 7.74769 12.1891 7.74769 12.1705C7.74769 12.1519 7.74008 12.1367 7.73078 12.1367C7.72149 12.1367 7.71388 12.1231 7.71388 12.1066C7.71388 12.0901 7.69867 12.0656 7.68007 12.0522C7.66148 12.0388 7.64627 12.0143 7.64627 11.9977C7.64627 11.9812 7.63866 11.9677 7.62936 11.9677C7.62007 11.9677 7.61246 11.9524 7.61246 11.9338C7.61246 11.9152 7.60485 11.9 7.59556 11.9C7.58626 11.9 7.57865 11.8848 7.57865 11.8662C7.57865 11.8476 7.57105 11.8324 7.56175 11.8324C7.55245 11.8324 7.54485 11.8172 7.54485 11.7986C7.54485 11.78 7.53724 11.7648 7.52794 11.7648C7.51864 11.7648 7.51104 11.7496 7.51104 11.731C7.51104 11.7124 7.50343 11.6972 7.49413 11.6972C7.48484 11.6972 7.47723 11.6744 7.47723 11.6465C7.47723 11.6186 7.46962 11.5958 7.46033 11.5958C7.45103 11.5958 7.44342 11.5806 7.44342 11.562C7.44342 11.5434 7.43582 11.5282 7.42652 11.5282C7.41722 11.5282 7.40962 11.5053 7.40962 11.4775C7.40962 11.4496 7.40201 11.4267 7.39271 11.4267C7.38342 11.4267 7.37581 11.4039 7.37581 11.376C7.37581 11.3481 7.3682 11.3253 7.35891 11.3253C7.34961 11.3253 7.342 11.2949 7.342 11.2577C7.342 11.2205 7.3344 11.1901 7.3251 11.1901C7.3158 11.1901 7.3082 11.1597 7.3082 11.1225C7.3082 11.0853 7.30059 11.0549 7.29129 11.0549C7.282 11.0549 7.27439 11.0168 7.27439 10.9703C7.27439 10.9239 7.26678 10.8858 7.25749 10.8858C7.24783 10.8858 7.24058 10.8351 7.24058 10.7675C7.24058 10.6999 7.23333 10.6492 7.22368 10.6492C7.21298 10.6492 7.20678 10.5252 7.20678 10.3111C7.20678 10.097 7.21298 9.97304 7.22368 9.97304C7.23333 9.97304 7.24058 9.92233 7.24058 9.85472C7.24058 9.7871 7.24783 9.73639 7.25749 9.73639C7.26678 9.73639 7.27439 9.69836 7.27439 9.65188C7.27439 9.60539 7.282 9.56736 7.29129 9.56736C7.30059 9.56736 7.3082 9.53693 7.3082 9.49975C7.3082 9.46256 7.3158 9.43213 7.3251 9.43213C7.3344 9.43213 7.342 9.40171 7.342 9.36452C7.342 9.32733 7.34961 9.2969 7.35891 9.2969C7.3682 9.2969 7.37581 9.27408 7.37581 9.24619C7.37581 9.2183 7.38342 9.19548 7.39271 9.19548C7.40201 9.19548 7.40962 9.17266 7.40962 9.14477C7.40962 9.11688 7.41722 9.09406 7.42652 9.09406C7.43582 9.09406 7.44342 9.07885 7.44342 9.06026C7.44342 9.04166 7.45103 9.02645 7.46033 9.02645C7.46962 9.02645 7.47723 9.00363 7.47723 8.97574C7.47723 8.94785 7.48484 8.92503 7.49413 8.92503C7.50343 8.92503 7.51104 8.90981 7.51104 8.89122C7.51104 8.87263 7.51864 8.85741 7.52794 8.85741C7.53724 8.85741 7.54485 8.8422 7.54485 8.82361C7.54485 8.80501 7.55245 8.7898 7.56175 8.7898C7.57105 8.7898 7.57865 8.77459 7.57865 8.75599C7.57865 8.7374 7.58626 8.72219 7.59556 8.72219C7.60485 8.72219 7.61246 8.70697 7.61246 8.68838C7.61246 8.66979 7.62007 8.65457 7.62936 8.65457C7.63866 8.65457 7.64627 8.64103 7.64627 8.6245C7.64627 8.60795 7.66148 8.58346 7.68007 8.57006C7.69867 8.55665 7.71388 8.53216 7.71388 8.51561C7.71388 8.49908 7.72149 8.48554 7.73078 8.48554C7.74008 8.48554 7.74769 8.47032 7.74769 8.45173C7.74769 8.43314 7.75529 8.41792 7.76459 8.41792C7.77389 8.41792 7.78149 8.40592 7.78149 8.39125C7.78149 8.37656 7.81192 8.33533 7.84911 8.2996C7.88629 8.26387 7.91672 8.22568 7.91672 8.21474C7.91672 8.20379 7.93954 8.17352 7.96743 8.14747C7.99532 8.12142 8.01814 8.09167 8.01814 8.08136C8.01814 8.0569 8.43468 7.64036 8.45914 7.64036C8.46945 7.64036 8.4992 7.61755 8.52525 7.58965C8.55129 7.56176 8.58157 7.53894 8.59252 7.53894C8.60346 7.53894 8.64164 7.50852 8.67738 7.47133C8.71311 7.43414 8.75434 7.40372 8.76903 7.40372C8.7837 7.40372 8.7957 7.39611 8.7957 7.38681C8.7957 7.37752 8.81091 7.36991 8.82951 7.36991C8.8481 7.36991 8.86331 7.3623 8.86331 7.35301C8.86331 7.34371 8.87686 7.3361 8.89339 7.3361C8.90994 7.3361 8.93443 7.32089 8.94783 7.3023C8.96124 7.2837 8.98573 7.26849 9.00228 7.26849C9.01881 7.26849 9.03235 7.26088 9.03235 7.25159C9.03235 7.24229 9.04756 7.23468 9.06616 7.23468C9.08475 7.23468 9.09996 7.22708 9.09996 7.21778C9.09996 7.20848 9.11518 7.20087 9.13377 7.20087C9.15236 7.20087 9.16758 7.19327 9.16758 7.18397C9.16758 7.17467 9.18279 7.16707 9.20138 7.16707C9.21998 7.16707 9.23519 7.15946 9.23519 7.15016C9.23519 7.14087 9.2504 7.13326 9.269 7.13326C9.28759 7.13326 9.3028 7.12565 9.3028 7.11636C9.3028 7.10706 9.32562 7.09945 9.35352 7.09945C9.38141 7.09945 9.40423 7.09185 9.40423 7.08255C9.40423 7.07325 9.41944 7.06565 9.43803 7.06565C9.45663 7.06565 9.47184 7.05804 9.47184 7.04874C9.47184 7.03945 9.49466 7.03184 9.52255 7.03184C9.55044 7.03184 9.57326 7.02423 9.57326 7.01494C9.57326 7.00564 9.59608 6.99803 9.62397 6.99803C9.65186 6.99803 9.67468 6.99043 9.67468 6.98113C9.67468 6.97183 9.70511 6.96423 9.7423 6.96423C9.77948 6.96423 9.80991 6.95662 9.80991 6.94732C9.80991 6.93803 9.84033 6.93042 9.87752 6.93042C9.91471 6.93042 9.94514 6.92281 9.94514 6.91352C9.94514 6.90422 9.98317 6.89661 10.0297 6.89661C10.0761 6.89661 10.1142 6.88901 10.1142 6.87971C10.1142 6.87006 10.1649 6.86281 10.2325 6.86281C10.3001 6.86281 10.3508 6.85555 10.3508 6.8459C10.3508 6.8352 10.4748 6.829 10.6889 6.829C10.903 6.829 11.027 6.8352 11.027 6.8459Z" fill="#707070"/>
</svg>
