<svg width="22" height="21" viewBox="0 0 22 21" fill="none" xmlns="http://www.w3.org/2000/svg">
<path d="M20.3852 0H1.48148C0.965927 0 0.622223 0.343704 0.622223 0.859259V19.763C0.622223 20.2785 0.965927 20.6222 1.48148 20.6222H20.3852C20.9007 20.6222 21.2444 20.2785 21.2444 19.763V0.859259C21.2444 0.343704 20.9007 0 20.3852 0ZM6.72296 17.6148H3.71556V7.73333H6.80889V17.6148H6.72296ZM5.1763 6.35852C4.23111 6.35852 3.37185 5.58519 3.37185 4.55407C3.37185 3.60889 4.14519 2.74963 5.1763 2.74963C6.12148 2.74963 6.98074 3.52296 6.98074 4.55407C6.98074 5.58519 6.20741 6.35852 5.1763 6.35852ZM18.237 17.6148H15.1437V12.803C15.1437 11.6859 15.1437 10.2252 13.597 10.2252C11.9644 10.2252 11.7926 11.4281 11.7926 12.717V17.6148H8.69926V7.73333H11.6207V9.10815C12.0504 8.33482 12.9956 7.56148 14.5422 7.56148C17.6356 7.56148 18.237 9.6237 18.237 12.2874V17.6148Z" fill="#707070"/>
</svg>
