<svg width="132" height="132" viewBox="0 0 132 132" fill="none" xmlns="http://www.w3.org/2000/svg">
<circle cx="66" cy="66" r="66" fill="#F9F9F9"/>
<path d="M76.8889 52H55.1111C53.3929 52 52 53.3929 52 55.1111V76.8889C52 78.6071 53.3929 80 55.1111 80H76.8889C78.6071 80 80 78.6071 80 76.8889V55.1111C80 53.3929 78.6071 52 76.8889 52Z" stroke="#78909C" stroke-linecap="round" stroke-linejoin="round"/>
<path d="M60.556 62.8889C61.8447 62.8889 62.8893 61.8442 62.8893 60.5556C62.8893 59.2669 61.8447 58.2222 60.556 58.2222C59.2673 58.2222 58.2227 59.2669 58.2227 60.5556C58.2227 61.8442 59.2673 62.8889 60.556 62.8889Z" stroke="#78909C" stroke-linecap="round" stroke-linejoin="round"/>
<path d="M80.0002 70.6667L72.2224 62.8889L55.1113 80" stroke="#78909C" stroke-linecap="round" stroke-linejoin="round"/>
</svg>
