<svg width="20" height="17" viewBox="0 0 20 17" fill="none" xmlns="http://www.w3.org/2000/svg">
<path d="M13.2727 15.7273V14.0909C13.2727 13.2229 12.9279 12.3905 12.3142 11.7767C11.7004 11.163 10.868 10.8182 10 10.8182H4.27273C3.40475 10.8182 2.57232 11.163 1.95856 11.7767C1.3448 12.3905 1 13.2229 1 14.0909V15.7273" stroke="currentColor" stroke-width="1.2" stroke-linecap="round" stroke-linejoin="round"/>
<path d="M7.13637 7.54545C8.94385 7.54545 10.4091 6.0802 10.4091 4.27273C10.4091 2.46525 8.94385 1 7.13637 1C5.3289 1 3.86365 2.46525 3.86365 4.27273C3.86365 6.0802 5.3289 7.54545 7.13637 7.54545Z" stroke="currentColor" stroke-width="1.2" stroke-linecap="round" stroke-linejoin="round"/>
<path d="M16.5455 5.09088V9.99997" stroke="currentColor" stroke-width="1.2" stroke-linecap="round" stroke-linejoin="round"/>
<path d="M19 7.54547H14.0909" stroke="currentColor" stroke-width="1.2" stroke-linecap="round" stroke-linejoin="round"/>
</svg>
